<svg id="Grupo_18" data-name="Grupo 18" xmlns="http://www.w3.org/2000/svg" width="800" height="161.492" viewBox="0 0 800 161.492">
  <path id="Caminho_51" data-name="Caminho 51" d="M1807.1,228h20.552V353.241H1807.1Z" transform="translate(-1807.1 -193.404)" fill="#f71963"/>
  <path id="Caminho_52" data-name="Caminho 52" d="M2016.858,308.648c0-18.207-9.93-27.586-24.9-27.586-15.1,0-25.034,9.379-25.034,27.586v55.517h-20.345V308.648c0-18.207-9.931-27.586-24.9-27.586-15.1,0-25.034,9.379-25.034,27.586v55.517H1876.1v-99.31h20.552v11.31c6.689-8.138,17.448-12.966,29.379-12.966,15.656,0,28.828,6.69,35.655,19.655,6.138-12.069,20.207-19.655,34.621-19.655,23.242,0,40.9,14.621,40.9,42.345V364.1h-20.345V308.648Z" transform="translate(-1828.514 -204.329)" fill="#f71963"/>
  <path id="Caminho_53" data-name="Caminho 53" d="M2187.217,365.752c-28.483,0-49.518-20.207-49.518-51.379s20.208-51.172,49.518-51.172c28.276,0,48.276,19.655,48.276,48.828a69.955,69.955,0,0,1-.689,10.069h-75.861c1.446,16.414,13.17,26.276,28.274,26.276,12.62,0,19.655-6.138,23.449-13.862H2232.8C2227.217,351.89,2211.494,365.752,2187.217,365.752Zm-28.138-60.207h54.965c-.344-15.31-12.412-25.034-27.723-25.034C2172.459,280.51,2161.286,289.89,2159.079,305.545Z" transform="translate(-1909.7 -204.329)" fill="#f71963"/>
  <path id="Caminho_54" data-name="Caminho 54" d="M2345.834,248.614c12.965,0,26.691,6.138,34.209,15.517V216.2h20.688V349.51h-20.688V334.545c-6.278,9.035-18.208,16.552-34.414,16.552-26.139,0-46.829-21.1-46.829-51.724C2298.8,268.821,2319.558,248.614,2345.834,248.614Zm4.139,17.862c-15.31,0-30.071,11.517-30.071,32.965s14.76,33.862,30.071,33.862c15.517,0,30.07-12.069,30.07-33.517C2380.043,278.545,2365.49,266.476,2349.973,266.476Z" transform="translate(-1959.696 -189.742)" fill="#f71963"/>
  <path id="Caminho_55" data-name="Caminho 55" d="M2485.9,265.6h20.552v99.31H2485.9Z" transform="translate(-2017.763 -205.073)" fill="#f71963"/>
  <path id="Caminho_56" data-name="Caminho 56" d="M2591.728,263.2c16.759,0,28.276,7.931,34.414,16.069V264.855h20.689v99.31h-20.689V349.407c-6.276,8.483-18.208,16.414-34.759,16.414-25.792,0-46.483-21.1-46.483-51.724C2544.9,283.407,2565.659,263.2,2591.728,263.2Zm4.346,17.862c-15.312,0-30.07,11.517-30.07,32.965s14.758,33.862,30.07,33.862c15.516,0,30.069-12.069,30.069-33.517C2626.142,293.131,2611.59,281.062,2596.074,281.062Z" transform="translate(-2036.075 -204.329)" fill="#f71963"/>
  <path id="Caminho_57" data-name="Caminho 57" d="M2731.424,271.248H2719.7V254.49h11.724V229.8h20.69v24.69h24.137v16.759h-24.137v54.965c0,7.379,2.9,10.483,11.518,10.483h12.619v17.1h-16.206c-17.656,0-28.622-7.379-28.622-27.586Z" transform="translate(-2090.322 -193.963)" fill="#f71963"/>
  <path id="Caminho_58" data-name="Caminho 58" d="M2866.129,263.2c16.759,0,28.275,7.931,34.413,16.069V264.855h20.69v99.31h-20.69V349.407c-6.275,8.483-18.207,16.414-34.758,16.414-25.793,0-46.484-21.1-46.484-51.724C2819.231,283.407,2839.99,263.2,2866.129,263.2Zm4.275,17.862c-15.31,0-30.068,11.517-30.068,32.965s14.758,33.862,30.068,33.862c15.517,0,30.069-12.069,30.069-33.517C2900.543,293.131,2885.921,281.062,2870.4,281.062Z" transform="translate(-2121.232 -204.329)" fill="#f71963"/>
  <path id="Caminho_59" data-name="Caminho 59" d="M2510.248,211.053a15.724,15.724,0,0,1-31.449,0c0-8.69,15.725-40.414,15.725-31.724C2494.525,188.777,2510.248,202.363,2510.248,211.053Z" transform="translate(-2015.56 -177.836)" fill="#f71963"/>
</svg>
