<svg version="1.1" id="Layer_1" xmlns="http://www.w3.org/2000/svg" xmlns:xlink="http://www.w3.org/1999/xlink" x="0px" y="0px"
	 width="100%" viewBox="0 0 794 714" enable-background="new 0 0 794 714" xml:space="preserve">
<path fill="#171911" opacity="1.000000" stroke="none" 
	d="
M1.000000,274.000000 
	C1.000000,182.666672 1.000000,91.833336 1.000000,1.000000 
	C265.666656,1.000000 530.333313,1.000000 795.000000,1.000000 
	C795.000000,239.000000 795.000000,477.000000 795.000000,715.000000 
	C530.333313,715.000000 265.666656,715.000000 1.000000,715.000000 
	C1.000000,568.166687 1.000000,421.333344 1.000000,274.000000 
M450.355927,215.496674 
	C450.895386,216.025482 451.434845,216.554291 452.327576,217.697952 
	C456.354828,222.192490 460.532410,219.270599 463.923981,217.218735 
	C469.717285,213.713882 474.916504,209.240982 480.473969,205.329193 
	C488.735382,199.514160 497.410645,194.239426 505.335907,188.005234 
	C518.734192,177.465836 531.726807,166.407333 544.797302,155.456467 
	C549.125305,151.830338 553.164001,147.860901 554.389221,141.215942 
	C557.630920,137.776398 556.428528,135.151810 553.096008,132.548920 
	C522.675476,108.788292 492.263031,85.016853 461.967560,61.097458 
	C458.558655,58.405994 455.239380,57.016487 450.371735,58.295116 
	C445.856079,62.692799 446.355469,68.478355 452.122894,73.518730 
	C460.987457,81.265839 469.929871,88.935356 479.072998,96.349525 
	C493.490692,108.040771 508.125824,119.463440 522.620667,131.060135 
	C528.652710,135.886108 528.648987,138.986771 522.511902,143.892700 
	C516.036621,149.069000 509.333527,153.959778 502.843018,159.117599 
	C485.578796,172.836960 468.323120,186.568237 451.178314,200.436066 
	C445.725281,204.846848 445.562225,209.379410 450.355927,215.496674 
M342.720306,258.705658 
	C346.201050,263.515411 350.393066,263.661163 353.858337,258.952393 
	C354.780609,258.262329 355.758240,257.634644 356.616486,256.872467 
	C364.387238,249.971710 368.022461,240.459534 371.606628,231.256409 
	C380.472809,208.490692 388.368103,185.348923 397.038849,162.504517 
	C410.603882,126.765266 424.265564,91.058960 438.352509,55.523510 
	C443.436707,42.698204 447.011963,29.791220 447.073090,15.945768 
	C447.088593,12.437572 445.683868,10.249250 442.378143,10.199898 
	C437.879089,10.132730 433.331329,10.747712 430.566620,15.103944 
	C429.053558,17.487989 427.366974,19.843145 426.337921,22.440798 
	C413.363556,55.192696 400.368896,87.937614 387.638031,120.784569 
	C376.885651,148.526886 366.277283,176.328705 355.989410,204.245789 
	C351.005371,217.770584 346.625732,231.539154 342.577850,245.374481 
	C341.439484,249.265259 342.446228,253.783615 342.720306,258.705658 
M120.196396,336.280243 
	C111.719948,334.687500 103.276634,331.967499 94.760742,331.717224 
	C70.950920,331.017487 47.110580,331.397583 23.283598,331.196198 
	C19.658476,331.165558 18.845858,332.568359 18.847057,335.922028 
	C18.867899,394.246979 18.802313,452.572021 18.671255,510.896851 
	C18.664324,513.980713 19.285419,515.337463 22.769699,515.315491 
	C47.264118,515.160706 71.815849,516.243286 96.241310,514.927124 
	C129.178467,513.152344 153.763977,496.964447 169.175766,467.465576 
	C178.201691,450.189484 178.091156,431.513672 177.492493,412.782013 
	C176.390762,378.310699 153.650238,347.695007 120.196396,336.280243 
M456.231567,381.389557 
	C436.044556,378.519531 416.397644,381.197418 397.103485,387.251709 
	C395.796204,387.661896 393.929199,388.598389 393.657166,389.639008 
	C391.066040,399.550476 388.763458,409.537323 386.381989,419.485535 
	C387.296448,419.732239 387.639008,419.946960 387.904724,419.875580 
	C389.189606,419.530457 390.451965,419.102264 391.725647,418.714600 
	C409.203308,413.395203 426.796234,409.485199 445.284485,412.665894 
	C454.857544,414.312836 460.064392,420.475372 463.194366,428.841492 
	C465.047760,433.795471 461.653107,437.950592 456.362183,437.676514 
	C453.712006,437.539215 451.094269,436.858398 448.444061,436.627289 
	C429.989014,435.017761 411.782745,435.371277 394.855469,444.302917 
	C375.359650,454.589874 369.292877,480.590240 382.111328,498.524078 
	C390.108459,509.712555 401.820984,514.569214 414.656586,517.055603 
	C441.826996,522.318787 468.673157,518.855713 495.422974,513.504639 
	C498.830109,512.823120 499.558533,510.955627 499.536285,507.885834 
	C499.337433,480.417694 499.603638,452.938263 498.828888,425.487640 
	C498.629852,418.436859 496.278748,410.951324 493.088623,404.580750 
	C485.822418,390.070374 472.273254,384.261810 456.231567,381.389557 
M748.993835,390.517273 
	C731.148376,379.871643 712.107666,376.898529 691.819702,381.404480 
	C650.722778,390.532166 626.909485,433.085388 640.741272,472.798798 
	C651.311829,503.148438 683.457764,522.486084 717.774414,519.138611 
	C747.929932,516.197021 773.023376,494.723999 780.343750,465.596497 
	C787.492249,437.153503 775.684937,408.471405 748.993835,390.517273 
M228.471039,517.038208 
	C235.246597,517.771667 242.104370,519.559814 248.782150,519.039185 
	C268.168640,517.527649 287.482452,515.085754 306.826050,513.020874 
	C309.682678,512.715942 310.842041,511.131195 310.776428,508.316376 
	C310.687134,504.486237 310.757629,500.652435 310.757660,496.820190 
	C310.757904,461.330353 310.703918,425.840332 310.832458,390.350952 
	C310.846924,386.355316 309.909851,384.710022 305.583374,384.855164 
	C296.596039,385.156677 287.590851,385.012604 278.594574,384.911560 
	C275.658234,384.878601 274.246094,385.841125 274.484161,388.955078 
	C274.661469,391.274170 274.518158,393.617706 274.518158,395.950378 
	C274.518036,424.275604 274.456909,452.601166 274.592407,480.925720 
	C274.610046,484.614899 273.654449,486.507904 269.773285,486.736481 
	C263.632263,487.098145 257.500366,488.191956 251.374374,488.121887 
	C234.265594,487.926239 226.489182,479.979034 226.064331,462.904877 
	C226.027039,461.406189 226.056732,459.905884 226.054047,458.406311 
	C226.013062,435.580505 225.915131,412.754486 225.990326,389.929047 
	C226.001938,386.403748 225.165482,384.778076 221.268677,384.875183 
	C212.276840,385.099243 203.275040,385.002106 194.278473,384.914551 
	C191.356888,384.886108 189.536560,385.441284 189.559464,388.982086 
	C189.738373,416.634338 189.355850,444.300812 190.188400,471.931549 
	C190.430588,479.968933 192.750732,488.564911 196.405212,495.740082 
	C202.682220,508.064301 214.506760,513.818848 228.471039,517.038208 
M579.669434,433.036957 
	C572.225098,430.271973 564.552063,427.969513 557.472046,424.467865 
	C555.269348,423.378479 553.349792,418.839264 553.745483,416.253479 
	C554.082336,414.052643 557.645813,411.434570 560.275330,410.645081 
	C576.162537,405.875000 591.546997,408.878784 606.636780,414.573181 
	C608.572693,415.303741 610.534058,415.966705 612.780029,416.766479 
	C616.065613,407.989044 619.131042,399.799683 622.316162,391.290619 
	C611.232361,386.067780 599.929688,383.419434 588.431580,381.694611 
	C572.476440,379.301270 556.575195,378.936249 541.090149,384.698975 
	C516.193848,393.964081 508.112640,424.225006 525.374207,444.101135 
	C532.881653,452.745789 543.125305,456.689270 553.795776,459.826935 
	C563.524658,462.687714 573.244995,465.612000 582.832947,468.904449 
	C588.247314,470.763733 591.643127,475.778961 591.123169,480.164948 
	C590.479065,485.598297 586.349121,487.186615 581.790405,488.465546 
	C571.239075,491.425659 560.609802,490.914551 550.114563,488.800873 
	C540.566895,486.878052 531.200867,484.052948 521.147766,481.469635 
	C518.500977,488.592804 515.911377,496.108185 512.884949,503.443359 
	C511.637085,506.467926 512.416809,507.420563 515.235779,508.460297 
	C530.183411,513.973389 545.597046,517.176453 561.462158,518.315674 
	C575.035889,519.290405 588.468262,518.734558 601.347534,513.811279 
	C616.371704,508.067993 625.169189,497.264557 626.974060,481.133270 
	C628.724121,465.491699 623.047485,453.003967 609.315002,445.427032 
	C600.216370,440.406860 590.110229,437.212616 579.669434,433.036957 
M326.217316,391.499939 
	C326.217316,430.995392 326.267059,470.491028 326.140747,509.986084 
	C326.128021,513.960266 326.968506,515.621826 331.339294,515.459106 
	C340.159393,515.130737 349.008575,515.134949 357.829071,515.457825 
	C362.163818,515.616455 363.083191,514.018372 363.063843,510.008240 
	C362.919067,480.012360 362.985107,450.015503 362.985107,420.018951 
	C362.985107,392.355469 362.895691,364.691376 363.073669,337.029053 
	C363.103058,332.460327 361.809723,330.928986 357.133759,331.142334 
	C348.818695,331.521606 340.464417,331.485901 332.145233,331.154541 
	C327.595581,330.973358 326.055176,332.312225 326.119293,337.007355 
	C326.362823,354.835327 326.217346,372.668579 326.217316,391.499939 
M584.048950,680.376282 
	C584.321533,661.088013 584.678528,641.799866 584.718628,622.511108 
	C584.722107,620.833313 582.992249,618.180054 581.467896,617.624146 
	C568.869019,613.029907 555.918152,611.186035 542.855530,615.410034 
	C529.536804,619.716858 522.833862,629.900696 523.412903,643.962402 
	C524.032532,659.012207 530.327698,667.169556 544.758850,670.727600 
	C549.881104,671.990540 555.309082,671.964539 560.515137,672.958679 
	C562.832581,673.401306 564.945984,674.912170 567.152039,675.938171 
	C565.792236,678.416382 564.847839,681.310242 562.928406,683.228455 
	C561.622070,684.533936 558.902649,685.073303 556.898743,684.912598 
	C550.636230,684.410339 544.412354,683.420837 538.176025,682.601013 
	C536.827698,682.423706 535.489990,682.165405 533.487366,681.835815 
	C534.512207,686.254395 534.960510,689.944763 536.297546,693.278687 
	C537.074463,695.215881 539.102356,697.730408 540.870911,698.000977 
	C547.888184,699.074341 555.084167,700.233032 562.104492,699.754456 
	C574.187744,698.930786 581.068359,692.472534 584.048950,680.376282 
M312.945770,72.483391 
	C288.062531,92.042366 263.168121,111.587219 238.303314,131.169586 
	C231.494476,136.531921 231.559692,137.990097 238.488876,143.455673 
	C265.043488,164.401321 291.594238,185.351913 318.152344,206.293121 
	C322.208191,209.491165 326.265839,212.688263 330.377686,215.813385 
	C333.282074,218.020828 336.392181,218.327637 338.810577,215.326874 
	C341.250977,212.298798 340.882690,209.135986 337.858887,206.481720 
	C336.982910,205.712784 336.104340,204.942917 335.183838,204.229065 
	C307.938538,183.100357 280.684540,161.982849 253.447433,140.843552 
	C252.075974,139.779144 250.843124,138.536133 249.125168,137.000275 
	C251.068878,135.448883 252.453552,134.314667 253.868088,133.218994 
	C281.388062,111.902420 308.920685,90.602165 336.424774,69.265121 
	C340.760132,65.901863 341.539703,62.841076 339.159668,59.563900 
	C336.777863,56.284302 333.542328,56.283379 329.196350,59.661800 
	C323.935852,63.751148 318.719849,67.897743 312.945770,72.483391 
M508.157471,668.671997 
	C516.304626,660.872803 519.941345,651.386047 518.154297,640.203552 
	C515.261414,622.101501 498.393158,610.589355 478.904144,613.148499 
	C456.289398,616.118042 443.807098,642.316101 455.816071,661.606018 
	C466.887939,679.390686 490.043610,682.751465 508.157471,668.671997 
M404.243774,616.138672 
	C381.137756,606.121765 355.818237,620.702332 355.283997,644.332703 
	C354.935394,659.752258 366.312317,673.756409 381.707855,676.858459 
	C398.424194,680.226685 415.423096,671.291992 421.148743,656.128296 
	C426.810333,641.134216 420.254120,625.105286 404.243774,616.138672 
M194.004379,659.780579 
	C190.451233,657.339294 187.154785,654.719238 186.699478,649.374023 
	C188.823273,649.280518 190.596786,649.138245 192.370575,649.134827 
	C203.520218,649.113525 214.670059,649.091858 225.819504,649.142761 
	C228.865448,649.156677 231.674469,648.265015 231.218765,644.883911 
	C229.743164,633.936035 226.645554,623.589417 216.485550,617.283752 
	C203.872147,609.455383 185.497818,612.456909 175.994400,623.683838 
	C165.752121,635.783569 165.622391,654.397461 175.699890,665.955200 
	C185.380341,677.057617 203.268799,680.438049 218.971970,674.132446 
	C228.675140,670.236267 228.515945,670.324829 223.561142,661.420837 
	C221.415298,657.564697 219.409378,657.285156 215.679886,659.382446 
	C208.959625,663.161499 201.828674,663.816162 194.004379,659.780579 
M631.675171,639.989380 
	C619.353149,643.457397 614.464294,649.288940 614.867065,660.038757 
	C615.186279,668.559448 621.115845,674.035461 632.900818,676.174438 
	C644.669006,678.310425 656.449524,677.678528 668.055115,675.030090 
	C669.678223,674.659607 671.943726,672.141663 671.980713,670.572266 
	C672.263306,658.596130 672.488281,646.587341 671.885559,634.631348 
	C671.400696,625.012695 666.386047,617.997803 656.805420,615.012695 
	C646.242859,611.721741 635.738403,613.311279 625.295410,615.753662 
	C624.435547,615.954834 623.270569,616.743774 623.054382,617.492554 
	C621.797852,621.845764 620.782715,626.268738 619.806580,630.184509 
	C628.603760,629.415100 636.645447,628.175171 644.669006,628.282959 
	C647.735352,628.324097 650.944519,631.206970 653.704590,633.300964 
	C654.675049,634.037231 655.187805,636.623840 654.638977,637.741882 
	C654.153259,638.731506 651.922729,639.216187 650.428467,639.297363 
	C644.466064,639.620972 638.490295,639.699951 631.675171,639.989380 
M308.136566,613.642700 
	C305.013367,614.133789 301.905640,614.825684 298.763245,615.067688 
	C294.311310,615.410583 292.952911,617.649902 293.015503,621.971375 
	C293.220520,636.129761 293.024689,650.293335 293.111206,664.454102 
	C293.189697,677.304260 291.169861,675.656189 305.058929,675.914490 
	C309.033539,675.988342 310.262543,674.449768 310.188232,670.599670 
	C309.992188,660.440613 310.121979,650.275330 310.122314,640.112488 
	C310.122681,628.367249 310.122772,628.367249 321.685852,628.478760 
	C329.917236,628.558105 332.431427,631.041138 332.461426,639.283936 
	C332.500244,649.946411 332.340485,660.612793 332.625977,671.267883 
	C332.667328,672.811218 334.843384,675.673950 335.804932,675.581055 
	C340.311462,675.145447 345.458435,678.175232 349.283661,673.553162 
	C349.463379,673.335999 349.431488,672.906555 349.424591,672.577515 
	C349.132355,658.614197 349.202789,644.629150 348.385071,630.696350 
	C347.935394,623.035156 342.775940,618.104797 335.698151,615.438965 
	C327.024597,612.171936 318.029846,612.711914 308.136566,613.642700 
M124.764030,639.402161 
	C124.741684,646.056702 124.365883,652.733398 124.782280,659.360352 
	C125.363846,668.616150 130.050110,673.683716 139.174026,675.123718 
	C143.741608,675.844543 148.444504,675.903198 153.087082,675.914917 
	C164.436829,675.943604 164.358704,675.866089 163.829803,664.592590 
	C163.683334,661.470703 162.554321,659.979431 159.349045,660.070862 
	C156.022873,660.165710 152.685638,660.198303 149.363739,660.039185 
	C144.559006,659.808960 142.029755,657.284180 141.832535,652.527100 
	C141.687851,649.037354 141.779343,645.536926 141.797852,642.041443 
	C141.864075,629.530579 140.498047,630.824036 152.998550,630.786621 
	C164.334961,630.752747 164.246994,630.783386 163.744843,619.540466 
	C163.602615,616.355652 162.396255,615.016174 159.226761,615.096436 
	C154.901642,615.205933 150.563599,614.957642 146.246124,615.169434 
	C142.697647,615.343506 141.484329,613.852966 141.667038,610.464172 
	C141.846008,607.144836 141.627747,603.806091 141.715836,600.479370 
	C141.800369,597.287354 139.781174,596.124084 137.251236,596.559082 
	C133.027222,597.285522 127.837479,593.806396 124.685837,599.187195 
	C124.243378,599.942566 124.549667,601.148682 124.545341,602.146240 
	C124.532364,605.142517 124.453583,608.141724 124.558594,611.134216 
	C124.663414,614.121155 123.354385,615.624084 120.390640,615.168701 
	C114.763245,614.304016 113.302162,617.083496 113.927315,622.057068 
	C114.133324,623.696106 113.499077,625.578369 114.095184,626.992859 
	C114.718864,628.472900 116.217300,630.392334 117.580910,630.616943 
	C124.715195,631.792053 124.742531,631.626099 124.764030,639.402161 
M256.154968,657.217468 
	C255.296814,655.625305 254.091888,654.126221 253.635727,652.426147 
	C250.174713,639.527649 254.715836,625.007385 273.662872,628.005371 
	C275.300079,628.264465 276.958832,628.552246 278.521667,629.080750 
	C281.377625,630.046570 283.316345,629.314148 284.587738,626.524536 
	C285.273315,625.020386 286.196899,623.613342 287.111084,622.227051 
	C288.879456,619.545227 288.557922,617.693115 285.333466,616.458496 
	C274.830353,612.437012 264.245789,611.631775 253.698318,615.962402 
	C242.639740,620.502930 236.783661,629.202820 235.604370,640.866028 
	C234.400757,652.770142 237.020218,663.572937 247.415619,670.882690 
	C259.447083,679.342834 272.465332,678.413086 285.597961,673.832397 
	C286.612000,673.478638 287.881836,672.089905 287.954773,671.102600 
	C288.339050,665.901855 281.731140,660.763184 276.564545,661.871948 
	C269.357819,663.418579 262.302887,663.917175 256.154968,657.217468 
M428.889465,643.500000 
	C428.889465,650.653687 428.889465,657.807312 428.889496,664.960999 
	C428.889496,675.934021 428.897308,675.673035 439.983307,676.003235 
	C445.020386,676.153320 446.033142,674.301880 445.990845,669.690674 
	C445.783325,647.067017 445.896790,624.440430 445.896851,601.814880 
	C445.896851,590.040039 445.893372,590.249939 433.988708,590.054749 
	C429.562988,589.982178 428.774261,591.682129 428.817749,595.586060 
	C428.991974,611.222351 428.889465,626.861755 428.889465,643.500000 
M608.186890,659.494995 
	C608.185486,646.191101 608.172607,632.887207 608.193481,619.583313 
	C608.197144,617.249695 608.018738,614.802429 604.922913,615.284363 
	C600.438599,615.982483 595.376221,612.997803 591.485291,617.308167 
	C591.218384,617.603821 591.327637,618.274048 591.327332,618.770142 
	C591.318359,636.564026 591.256531,654.358643 591.445374,672.150452 
	C591.458557,673.387024 593.175720,675.464417 594.380676,675.696594 
	C606.402588,678.012939 608.186096,676.477295 608.186829,664.483459 
	C608.186890,663.153076 608.187012,661.822693 608.186890,659.494995 
M591.456665,599.634155 
	C592.604492,605.461487 594.415527,606.986572 599.980591,607.030945 
	C603.882935,607.062012 606.905090,605.776733 607.690002,601.630737 
	C608.424927,597.748840 607.073853,594.754395 603.040405,593.514038 
	C597.647583,591.855591 593.758911,593.718994 591.456665,599.634155 
z"/>
<path fill="#FDFDFC" opacity="1.000000" stroke="none" 
	d="
M120.566757,336.411987 
	C153.650238,347.695007 176.390762,378.310699 177.492493,412.782013 
	C178.091156,431.513672 178.201691,450.189484 169.175766,467.465576 
	C153.763977,496.964447 129.178467,513.152344 96.241310,514.927124 
	C71.815849,516.243286 47.264118,515.160706 22.769699,515.315491 
	C19.285419,515.337463 18.664324,513.980713 18.671255,510.896851 
	C18.802313,452.572021 18.867899,394.246979 18.847057,335.922028 
	C18.845858,332.568359 19.658476,331.165558 23.283598,331.196198 
	C47.110580,331.397583 70.950920,331.017487 94.760742,331.717224 
	C103.276634,331.967499 111.719948,334.687500 120.566757,336.411987 
M112.051376,475.666473 
	C126.457771,467.859985 136.268661,456.289307 139.344025,440.053284 
	C140.723160,432.772308 140.613281,425.142609 140.582565,417.673615 
	C140.486908,394.410187 126.416237,375.228210 104.312477,367.917114 
	C88.551147,362.703827 72.311516,365.709045 55.844177,364.740631 
	C55.682060,367.052399 55.456234,368.828918 55.447796,370.606476 
	C55.285683,404.751587 55.118816,438.896759 55.025642,473.042114 
	C54.997669,483.293976 53.981083,481.557495 63.828465,481.722931 
	C64.993752,481.742493 66.158478,481.831451 67.323410,481.830505 
	C82.266655,481.818665 97.401825,483.254120 112.051376,475.666473 
z"/>
<path fill="#FBFBFB" opacity="1.000000" stroke="none" 
	d="
M456.656677,381.466736 
	C472.273254,384.261810 485.822418,390.070374 493.088623,404.580750 
	C496.278748,410.951324 498.629852,418.436859 498.828888,425.487640 
	C499.603638,452.938263 499.337433,480.417694 499.536285,507.885834 
	C499.558533,510.955627 498.830109,512.823120 495.422974,513.504639 
	C468.673157,518.855713 441.826996,522.318787 414.656586,517.055603 
	C401.820984,514.569214 390.108459,509.712555 382.111328,498.524078 
	C369.292877,480.590240 375.359650,454.589874 394.855469,444.302917 
	C411.782745,435.371277 429.989014,435.017761 448.444061,436.627289 
	C451.094269,436.858398 453.712006,437.539215 456.362183,437.676514 
	C461.653107,437.950592 465.047760,433.795471 463.194366,428.841492 
	C460.064392,420.475372 454.857544,414.312836 445.284485,412.665894 
	C426.796234,409.485199 409.203308,413.395203 391.725647,418.714600 
	C390.451965,419.102264 389.189606,419.530457 387.904724,419.875580 
	C387.639008,419.946960 387.296448,419.732239 386.381989,419.485535 
	C388.763458,409.537323 391.066040,399.550476 393.657166,389.639008 
	C393.929199,388.598389 395.796204,387.661896 397.103485,387.251709 
	C416.397644,381.197418 436.044556,378.519531 456.656677,381.466736 
M414.937134,468.686401 
	C411.610321,476.256958 413.028961,482.144867 420.089386,486.139679 
	C423.728394,488.198608 428.102600,489.642181 432.253906,489.967133 
	C440.519257,490.614075 448.860077,490.301422 457.169861,490.373962 
	C460.975067,490.407196 463.110809,488.682587 463.127563,484.701691 
	C463.154114,478.385498 463.236389,472.069519 463.243317,465.753387 
	C463.247589,461.859344 461.127899,459.917755 457.338470,459.916840 
	C448.696075,459.914703 440.039764,459.736847 431.415955,460.167694 
	C425.110626,460.482758 419.448730,462.851990 414.937134,468.686401 
z"/>
<path fill="#FCFCFC" opacity="1.000000" stroke="none" 
	d="
M749.297363,390.716675 
	C775.684937,408.471405 787.492249,437.153503 780.343750,465.596497 
	C773.023376,494.723999 747.929932,516.197021 717.774414,519.138611 
	C683.457764,522.486084 651.311829,503.148438 640.741272,472.798798 
	C626.909485,433.085388 650.722778,390.532166 691.819702,381.404480 
	C712.107666,376.898529 731.148376,379.871643 749.297363,390.716675 
M678.518555,430.097504 
	C676.824646,435.280029 674.309753,440.349731 673.579346,445.664642 
	C670.478943,468.224030 691.061523,489.478882 712.856018,486.686676 
	C730.501770,484.425995 743.245056,471.521454 745.293945,453.838104 
	C747.261719,436.854889 737.577576,420.191132 722.406006,414.454376 
	C706.054749,408.271454 689.473267,413.995758 678.518555,430.097504 
z"/>
<path fill="#FCFCFC" opacity="1.000000" stroke="none" 
	d="
M228.067841,516.923828 
	C214.506760,513.818848 202.682220,508.064301 196.405212,495.740082 
	C192.750732,488.564911 190.430588,479.968933 190.188400,471.931549 
	C189.355850,444.300812 189.738373,416.634338 189.559464,388.982086 
	C189.536560,385.441284 191.356888,384.886108 194.278473,384.914551 
	C203.275040,385.002106 212.276840,385.099243 221.268677,384.875183 
	C225.165482,384.778076 226.001938,386.403748 225.990326,389.929047 
	C225.915131,412.754486 226.013062,435.580505 226.054047,458.406311 
	C226.056732,459.905884 226.027039,461.406189 226.064331,462.904877 
	C226.489182,479.979034 234.265594,487.926239 251.374374,488.121887 
	C257.500366,488.191956 263.632263,487.098145 269.773285,486.736481 
	C273.654449,486.507904 274.610046,484.614899 274.592407,480.925720 
	C274.456909,452.601166 274.518036,424.275604 274.518158,395.950378 
	C274.518158,393.617706 274.661469,391.274170 274.484161,388.955078 
	C274.246094,385.841125 275.658234,384.878601 278.594574,384.911560 
	C287.590851,385.012604 296.596039,385.156677 305.583374,384.855164 
	C309.909851,384.710022 310.846924,386.355316 310.832458,390.350952 
	C310.703918,425.840332 310.757904,461.330353 310.757660,496.820190 
	C310.757629,500.652435 310.687134,504.486237 310.776428,508.316376 
	C310.842041,511.131195 309.682678,512.715942 306.826050,513.020874 
	C287.482452,515.085754 268.168640,517.527649 248.782150,519.039185 
	C242.104370,519.559814 235.246597,517.771667 228.067841,516.923828 
z"/>
<path fill="#FBFBFB" opacity="1.000000" stroke="none" 
	d="
M580.062256,433.118958 
	C590.110229,437.212616 600.216370,440.406860 609.315002,445.427032 
	C623.047485,453.003967 628.724121,465.491699 626.974060,481.133270 
	C625.169189,497.264557 616.371704,508.067993 601.347534,513.811279 
	C588.468262,518.734558 575.035889,519.290405 561.462158,518.315674 
	C545.597046,517.176453 530.183411,513.973389 515.235779,508.460297 
	C512.416809,507.420563 511.637085,506.467926 512.884949,503.443359 
	C515.911377,496.108185 518.500977,488.592804 521.147766,481.469635 
	C531.200867,484.052948 540.566895,486.878052 550.114563,488.800873 
	C560.609802,490.914551 571.239075,491.425659 581.790405,488.465546 
	C586.349121,487.186615 590.479065,485.598297 591.123169,480.164948 
	C591.643127,475.778961 588.247314,470.763733 582.832947,468.904449 
	C573.244995,465.612000 563.524658,462.687714 553.795776,459.826935 
	C543.125305,456.689270 532.881653,452.745789 525.374207,444.101135 
	C508.112640,424.225006 516.193848,393.964081 541.090149,384.698975 
	C556.575195,378.936249 572.476440,379.301270 588.431580,381.694611 
	C599.929688,383.419434 611.232361,386.067780 622.316162,391.290619 
	C619.131042,399.799683 616.065613,407.989044 612.780029,416.766479 
	C610.534058,415.966705 608.572693,415.303741 606.636780,414.573181 
	C591.546997,408.878784 576.162537,405.875000 560.275330,410.645081 
	C557.645813,411.434570 554.082336,414.052643 553.745483,416.253479 
	C553.349792,418.839264 555.269348,423.378479 557.472046,424.467865 
	C564.552063,427.969513 572.225098,430.271973 580.062256,433.118958 
z"/>
<path fill="#FBFBFB" opacity="1.000000" stroke="none" 
	d="
M326.217316,390.999908 
	C326.217346,372.668579 326.362823,354.835327 326.119293,337.007355 
	C326.055176,332.312225 327.595581,330.973358 332.145233,331.154541 
	C340.464417,331.485901 348.818695,331.521606 357.133759,331.142334 
	C361.809723,330.928986 363.103058,332.460327 363.073669,337.029053 
	C362.895691,364.691376 362.985107,392.355469 362.985107,420.018951 
	C362.985107,450.015503 362.919067,480.012360 363.063843,510.008240 
	C363.083191,514.018372 362.163818,515.616455 357.829071,515.457825 
	C349.008575,515.134949 340.159393,515.130737 331.339294,515.459106 
	C326.968506,515.621826 326.128021,513.960266 326.140747,509.986084 
	C326.267059,470.491028 326.217316,430.995392 326.217316,390.999908 
z"/>
<path fill="#04F46B" opacity="1.000000" stroke="none" 
	d="
M583.968628,680.788391 
	C581.068359,692.472534 574.187744,698.930786 562.104492,699.754456 
	C555.084167,700.233032 547.888184,699.074341 540.870911,698.000977 
	C539.102356,697.730408 537.074463,695.215881 536.297546,693.278687 
	C534.960510,689.944763 534.512207,686.254395 533.487366,681.835815 
	C535.489990,682.165405 536.827698,682.423706 538.176025,682.601013 
	C544.412354,683.420837 550.636230,684.410339 556.898743,684.912598 
	C558.902649,685.073303 561.622070,684.533936 562.928406,683.228455 
	C564.847839,681.310242 565.792236,678.416382 567.152039,675.938171 
	C564.945984,674.912170 562.832581,673.401306 560.515137,672.958679 
	C555.309082,671.964539 549.881104,671.990540 544.758850,670.727600 
	C530.327698,667.169556 524.032532,659.012207 523.412903,643.962402 
	C522.833862,629.900696 529.536804,619.716858 542.855530,615.410034 
	C555.918152,611.186035 568.869019,613.029907 581.467896,617.624146 
	C582.992249,618.180054 584.722107,620.833313 584.718628,622.511108 
	C584.678528,641.799866 584.321533,661.088013 583.968628,680.788391 
M567.424438,630.434204 
	C563.261536,626.133606 557.987488,628.198975 553.346497,628.519348 
	C545.055481,629.091858 540.183533,635.060120 540.196594,643.177551 
	C540.209351,651.042542 544.971741,656.385010 553.251831,657.424316 
	C556.523621,657.835022 559.870850,657.703918 563.183960,657.710327 
	C566.504272,657.716675 567.928772,655.867126 567.892822,652.647827 
	C567.813171,645.517029 567.775391,638.385803 567.424438,630.434204 
z"/>
<path fill="#202335" opacity="1.000000" stroke="none" 
	d="
M342.469116,258.014130 
	C342.446228,253.783615 341.439484,249.265259 342.577850,245.374481 
	C346.625732,231.539154 351.005371,217.770584 355.989410,204.245789 
	C366.277283,176.328705 376.885651,148.526886 387.638031,120.784569 
	C400.368896,87.937614 413.363556,55.192696 426.337921,22.440798 
	C427.366974,19.843145 429.053558,17.487989 430.566620,15.103944 
	C433.331329,10.747712 437.879089,10.132730 442.378143,10.199898 
	C445.683868,10.249250 447.088593,12.437572 447.073090,15.945768 
	C447.011963,29.791220 443.436707,42.698204 438.352509,55.523510 
	C424.265564,91.058960 410.603882,126.765266 397.038849,162.504517 
	C388.368103,185.348923 380.472809,208.490692 371.606628,231.256409 
	C368.022461,240.459534 364.387238,249.971710 356.616486,256.872467 
	C355.758240,257.634644 354.780609,258.262329 353.508209,258.639771 
	C356.802521,248.857178 360.422577,239.377762 364.095306,229.918823 
	C390.769226,161.222092 417.453888,92.529579 444.134583,23.835506 
	C446.175018,18.582035 445.411835,15.700769 441.392670,14.282360 
	C436.728149,12.636180 435.136261,15.941689 433.830536,19.356325 
	C411.963440,76.541382 390.131287,133.739807 368.261017,190.923630 
	C359.702362,213.301895 351.068634,235.651489 342.469116,258.014130 
z"/>
<path fill="#04F16A" opacity="1.000000" stroke="none" 
	d="
M313.215179,72.251472 
	C318.719849,67.897743 323.935852,63.751148 329.196350,59.661800 
	C333.542328,56.283379 336.777863,56.284302 339.159668,59.563900 
	C341.539703,62.841076 340.760132,65.901863 336.424774,69.265121 
	C308.920685,90.602165 281.388062,111.902420 253.868088,133.218994 
	C252.453552,134.314667 251.068878,135.448883 249.125168,137.000275 
	C250.843124,138.536133 252.075974,139.779144 253.447433,140.843552 
	C280.684540,161.982849 307.938538,183.100357 335.183838,204.229065 
	C336.104340,204.942917 336.982910,205.712784 337.858887,206.481720 
	C340.882690,209.135986 341.250977,212.298798 338.810577,215.326874 
	C336.392181,218.327637 333.282074,218.020828 330.377686,215.813385 
	C326.265839,212.688263 322.208191,209.491165 318.152344,206.293121 
	C291.594238,185.351913 265.043488,164.401321 238.488876,143.455673 
	C231.559692,137.990097 231.494476,136.531921 238.303314,131.169586 
	C263.168121,111.587219 288.062531,92.042366 313.215179,72.251472 
z"/>
<path fill="#04F06B" opacity="1.000000" stroke="none" 
	d="
M342.594727,258.359894 
	C351.068634,235.651489 359.702362,213.301895 368.261017,190.923630 
	C390.131287,133.739807 411.963440,76.541382 433.830536,19.356325 
	C435.136261,15.941689 436.728149,12.636180 441.392670,14.282360 
	C445.411835,15.700769 446.175018,18.582035 444.134583,23.835506 
	C417.453888,92.529579 390.769226,161.222092 364.095306,229.918823 
	C360.422577,239.377762 356.802521,248.857178 353.176941,258.698486 
	C350.393066,263.661163 346.201050,263.515411 342.594727,258.359894 
z"/>
<path fill="#04F16B" opacity="1.000000" stroke="none" 
	d="
M451.014038,58.005455 
	C455.239380,57.016487 458.558655,58.405994 461.967560,61.097458 
	C492.263031,85.016853 522.675476,108.788292 553.096008,132.548920 
	C556.428528,135.151810 557.630920,137.776398 553.829590,141.584930 
	C522.664612,165.766830 492.101624,189.634720 461.377014,213.292755 
	C458.798645,215.278107 455.134186,215.852951 451.974304,217.083099 
	C451.434845,216.554291 450.895386,216.025482 450.297882,214.867523 
	C449.887573,210.419724 451.407898,207.669815 454.469635,205.284866 
	C481.889648,183.925827 509.224365,162.457275 536.594666,141.034302 
	C541.193237,137.434952 541.244812,137.065613 536.637268,133.460922 
	C510.048615,112.659401 483.506622,91.797241 456.791595,71.159203 
	C452.218170,67.626144 449.836182,63.758442 451.014038,58.005455 
z"/>
<path fill="#04F46C" opacity="1.000000" stroke="none" 
	d="
M507.878967,668.896973 
	C490.043610,682.751465 466.887939,679.390686 455.816071,661.606018 
	C443.807098,642.316101 456.289398,616.118042 478.904144,613.148499 
	C498.393158,610.589355 515.261414,622.101501 518.154297,640.203552 
	C519.941345,651.386047 516.304626,660.872803 507.878967,668.896973 
M467.910522,644.601929 
	C468.403687,654.786560 474.834076,661.712402 484.103241,662.042358 
	C493.195618,662.365967 500.852600,655.505798 501.595459,646.370422 
	C502.316406,637.504211 495.557739,629.346985 486.565735,628.230591 
	C477.537445,627.109680 469.546570,633.767639 467.910522,644.601929 
z"/>
<path fill="#03F46C" opacity="1.000000" stroke="none" 
	d="
M404.583374,616.298706 
	C420.254120,625.105286 426.810333,641.134216 421.148743,656.128296 
	C415.423096,671.291992 398.424194,680.226685 381.707855,676.858459 
	C366.312317,673.756409 354.935394,659.752258 355.283997,644.332703 
	C355.818237,620.702332 381.137756,606.121765 404.583374,616.298706 
M381.752930,629.969910 
	C374.094269,634.616333 370.725616,641.730591 372.654114,649.185547 
	C374.499329,656.318542 380.840790,661.715393 388.128540,661.988708 
	C395.244324,662.255676 400.730804,659.234131 404.100250,652.888428 
	C407.354858,646.758972 406.411926,639.403137 401.944244,634.191650 
	C397.147125,628.595947 390.523804,627.055847 381.752930,629.969910 
z"/>
<path fill="#03F56C" opacity="1.000000" stroke="none" 
	d="
M194.346771,659.966736 
	C201.828674,663.816162 208.959625,663.161499 215.679886,659.382446 
	C219.409378,657.285156 221.415298,657.564697 223.561142,661.420837 
	C228.515945,670.324829 228.675140,670.236267 218.971970,674.132446 
	C203.268799,680.438049 185.380341,677.057617 175.699890,665.955200 
	C165.622391,654.397461 165.752121,635.783569 175.994400,623.683838 
	C185.497818,612.456909 203.872147,609.455383 216.485550,617.283752 
	C226.645554,623.589417 229.743164,633.936035 231.218765,644.883911 
	C231.674469,648.265015 228.865448,649.156677 225.819504,649.142761 
	C214.670059,649.091858 203.520218,649.113525 192.370575,649.134827 
	C190.596786,649.138245 188.823273,649.280518 186.699478,649.374023 
	C187.154785,654.719238 190.451233,657.339294 194.346771,659.966736 
M212.268051,638.047180 
	C213.037354,631.999573 208.587341,627.530884 201.324707,627.057800 
	C192.910461,626.509766 187.482178,630.751465 187.403336,638.454102 
	C195.446411,638.454102 203.497238,638.454102 212.268051,638.047180 
z"/>
<path fill="#03F56C" opacity="1.000000" stroke="none" 
	d="
M632.097351,639.929443 
	C638.490295,639.699951 644.466064,639.620972 650.428467,639.297363 
	C651.922729,639.216187 654.153259,638.731506 654.638977,637.741882 
	C655.187805,636.623840 654.675049,634.037231 653.704590,633.300964 
	C650.944519,631.206970 647.735352,628.324097 644.669006,628.282959 
	C636.645447,628.175171 628.603760,629.415100 619.806580,630.184509 
	C620.782715,626.268738 621.797852,621.845764 623.054382,617.492554 
	C623.270569,616.743774 624.435547,615.954834 625.295410,615.753662 
	C635.738403,613.311279 646.242859,611.721741 656.805420,615.012695 
	C666.386047,617.997803 671.400696,625.012695 671.885559,634.631348 
	C672.488281,646.587341 672.263306,658.596130 671.980713,670.572266 
	C671.943726,672.141663 669.678223,674.659607 668.055115,675.030090 
	C656.449524,677.678528 644.669006,678.310425 632.900818,676.174438 
	C621.115845,674.035461 615.186279,668.559448 614.867065,660.038757 
	C614.464294,649.288940 619.353149,643.457397 632.097351,639.929443 
M647.412720,650.036560 
	C643.674561,650.488281 639.751221,650.405884 636.274475,651.611511 
	C634.467407,652.238159 632.251709,655.230530 632.384949,656.990356 
	C632.543335,659.082336 634.755127,662.375854 636.554016,662.730652 
	C641.829468,663.770874 647.339600,663.661804 652.763123,663.854614 
	C653.390930,663.877014 654.588379,662.991394 654.611450,662.485352 
	C654.774475,658.904419 655.161621,655.211121 654.409119,651.788513 
	C654.193481,650.807434 650.462646,650.599243 647.412720,650.036560 
z"/>
<path fill="#04F36B" opacity="1.000000" stroke="none" 
	d="
M308.587158,613.569763 
	C318.029846,612.711914 327.024597,612.171936 335.698151,615.438965 
	C342.775940,618.104797 347.935394,623.035156 348.385071,630.696350 
	C349.202789,644.629150 349.132355,658.614197 349.424591,672.577515 
	C349.431488,672.906555 349.463379,673.335999 349.283661,673.553162 
	C345.458435,678.175232 340.311462,675.145447 335.804932,675.581055 
	C334.843384,675.673950 332.667328,672.811218 332.625977,671.267883 
	C332.340485,660.612793 332.500244,649.946411 332.461426,639.283936 
	C332.431427,631.041138 329.917236,628.558105 321.685852,628.478760 
	C310.122772,628.367249 310.122681,628.367249 310.122314,640.112488 
	C310.121979,650.275330 309.992188,660.440613 310.188232,670.599670 
	C310.262543,674.449768 309.033539,675.988342 305.058929,675.914490 
	C291.169861,675.656189 293.189697,677.304260 293.111206,664.454102 
	C293.024689,650.293335 293.220520,636.129761 293.015503,621.971375 
	C292.952911,617.649902 294.311310,615.410583 298.763245,615.067688 
	C301.905640,614.825684 305.013367,614.133789 308.587158,613.569763 
z"/>
<path fill="#04F36B" opacity="1.000000" stroke="none" 
	d="
M124.764130,638.948608 
	C124.742531,631.626099 124.715195,631.792053 117.580910,630.616943 
	C116.217300,630.392334 114.718864,628.472900 114.095184,626.992859 
	C113.499077,625.578369 114.133324,623.696106 113.927315,622.057068 
	C113.302162,617.083496 114.763245,614.304016 120.390640,615.168701 
	C123.354385,615.624084 124.663414,614.121155 124.558594,611.134216 
	C124.453583,608.141724 124.532364,605.142517 124.545341,602.146240 
	C124.549667,601.148682 124.243378,599.942566 124.685837,599.187195 
	C127.837479,593.806396 133.027222,597.285522 137.251236,596.559082 
	C139.781174,596.124084 141.800369,597.287354 141.715836,600.479370 
	C141.627747,603.806091 141.846008,607.144836 141.667038,610.464172 
	C141.484329,613.852966 142.697647,615.343506 146.246124,615.169434 
	C150.563599,614.957642 154.901642,615.205933 159.226761,615.096436 
	C162.396255,615.016174 163.602615,616.355652 163.744843,619.540466 
	C164.246994,630.783386 164.334961,630.752747 152.998550,630.786621 
	C140.498047,630.824036 141.864075,629.530579 141.797852,642.041443 
	C141.779343,645.536926 141.687851,649.037354 141.832535,652.527100 
	C142.029755,657.284180 144.559006,659.808960 149.363739,660.039185 
	C152.685638,660.198303 156.022873,660.165710 159.349045,660.070862 
	C162.554321,659.979431 163.683334,661.470703 163.829803,664.592590 
	C164.358704,675.866089 164.436829,675.943604 153.087082,675.914917 
	C148.444504,675.903198 143.741608,675.844543 139.174026,675.123718 
	C130.050110,673.683716 125.363846,668.616150 124.782280,659.360352 
	C124.365883,652.733398 124.741684,646.056702 124.764130,638.948608 
z"/>
<path fill="#04F36B" opacity="1.000000" stroke="none" 
	d="
M256.389465,657.516602 
	C262.302887,663.917175 269.357819,663.418579 276.564545,661.871948 
	C281.731140,660.763184 288.339050,665.901855 287.954773,671.102600 
	C287.881836,672.089905 286.612000,673.478638 285.597961,673.832397 
	C272.465332,678.413086 259.447083,679.342834 247.415619,670.882690 
	C237.020218,663.572937 234.400757,652.770142 235.604370,640.866028 
	C236.783661,629.202820 242.639740,620.502930 253.698318,615.962402 
	C264.245789,611.631775 274.830353,612.437012 285.333466,616.458496 
	C288.557922,617.693115 288.879456,619.545227 287.111084,622.227051 
	C286.196899,623.613342 285.273315,625.020386 284.587738,626.524536 
	C283.316345,629.314148 281.377625,630.046570 278.521667,629.080750 
	C276.958832,628.552246 275.300079,628.264465 273.662872,628.005371 
	C254.715836,625.007385 250.174713,639.527649 253.635727,652.426147 
	C254.091888,654.126221 255.296814,655.625305 256.389465,657.516602 
z"/>
<path fill="#04F26B" opacity="1.000000" stroke="none" 
	d="
M428.889404,643.000000 
	C428.889465,626.861755 428.991974,611.222351 428.817749,595.586060 
	C428.774261,591.682129 429.562988,589.982178 433.988708,590.054749 
	C445.893372,590.249939 445.896851,590.040039 445.896851,601.814880 
	C445.896790,624.440430 445.783325,647.067017 445.990845,669.690674 
	C446.033142,674.301880 445.020386,676.153320 439.983307,676.003235 
	C428.897308,675.673035 428.889496,675.934021 428.889496,664.960999 
	C428.889465,657.807312 428.889465,650.653687 428.889404,643.000000 
z"/>
<path fill="#202335" opacity="1.000000" stroke="none" 
	d="
M450.692871,58.150284 
	C449.836182,63.758442 452.218170,67.626144 456.791595,71.159203 
	C483.506622,91.797241 510.048615,112.659401 536.637268,133.460922 
	C541.244812,137.065613 541.193237,137.434952 536.594666,141.034302 
	C509.224365,162.457275 481.889648,183.925827 454.469635,205.284866 
	C451.407898,207.669815 449.887573,210.419724 450.140839,214.629883 
	C445.562225,209.379410 445.725281,204.846848 451.178314,200.436066 
	C468.323120,186.568237 485.578796,172.836960 502.843018,159.117599 
	C509.333527,153.959778 516.036621,149.069000 522.511902,143.892700 
	C528.648987,138.986771 528.652710,135.886108 522.620667,131.060135 
	C508.125824,119.463440 493.490692,108.040771 479.072998,96.349525 
	C469.929871,88.935356 460.987457,81.265839 452.122894,73.518730 
	C446.355469,68.478355 445.856079,62.692799 450.692871,58.150284 
z"/>
<path fill="#04F16A" opacity="1.000000" stroke="none" 
	d="
M608.187012,659.993652 
	C608.187012,661.822693 608.186890,663.153076 608.186829,664.483459 
	C608.186096,676.477295 606.402588,678.012939 594.380676,675.696594 
	C593.175720,675.464417 591.458557,673.387024 591.445374,672.150452 
	C591.256531,654.358643 591.318359,636.564026 591.327332,618.770142 
	C591.327637,618.274048 591.218384,617.603821 591.485291,617.308167 
	C595.376221,612.997803 600.438599,615.982483 604.922913,615.284363 
	C608.018738,614.802429 608.197144,617.249695 608.193481,619.583313 
	C608.172607,632.887207 608.185486,646.191101 608.187012,659.993652 
z"/>
<path fill="#202335" opacity="1.000000" stroke="none" 
	d="
M452.150940,217.390533 
	C455.134186,215.852951 458.798645,215.278107 461.377014,213.292755 
	C492.101624,189.634720 522.664612,165.766830 553.610107,141.873016 
	C553.164001,147.860901 549.125305,151.830338 544.797302,155.456467 
	C531.726807,166.407333 518.734192,177.465836 505.335907,188.005234 
	C497.410645,194.239426 488.735382,199.514160 480.473969,205.329193 
	C474.916504,209.240982 469.717285,213.713882 463.923981,217.218735 
	C460.532410,219.270599 456.354828,222.192490 452.150940,217.390533 
z"/>
<path fill="#04ED68" opacity="1.000000" stroke="none" 
	d="
M591.515503,599.272217 
	C593.758911,593.718994 597.647583,591.855591 603.040405,593.514038 
	C607.073853,594.754395 608.424927,597.748840 607.690002,601.630737 
	C606.905090,605.776733 603.882935,607.062012 599.980591,607.030945 
	C594.415527,606.986572 592.604492,605.461487 591.515503,599.272217 
z"/>
<path fill="#1A1B13" opacity="1.000000" stroke="none" 
	d="
M111.724152,475.849731 
	C97.401825,483.254120 82.266655,481.818665 67.323410,481.830505 
	C66.158478,481.831451 64.993752,481.742493 63.828465,481.722931 
	C53.981083,481.557495 54.997669,483.293976 55.025642,473.042114 
	C55.118816,438.896759 55.285683,404.751587 55.447796,370.606476 
	C55.456234,368.828918 55.682060,367.052399 55.844177,364.740631 
	C72.311516,365.709045 88.551147,362.703827 104.312477,367.917114 
	C126.416237,375.228210 140.486908,394.410187 140.582565,417.673615 
	C140.613281,425.142609 140.723160,432.772308 139.344025,440.053284 
	C136.268661,456.289307 126.457771,467.859985 111.724152,475.849731 
z"/>
<path fill="#1B1C14" opacity="1.000000" stroke="none" 
	d="
M415.169250,468.392761 
	C419.448730,462.851990 425.110626,460.482758 431.415955,460.167694 
	C440.039764,459.736847 448.696075,459.914703 457.338470,459.916840 
	C461.127899,459.917755 463.247589,461.859344 463.243317,465.753387 
	C463.236389,472.069519 463.154114,478.385498 463.127563,484.701691 
	C463.110809,488.682587 460.975067,490.407196 457.169861,490.373962 
	C448.860077,490.301422 440.519257,490.614075 432.253906,489.967133 
	C428.102600,489.642181 423.728394,488.198608 420.089386,486.139679 
	C413.028961,482.144867 411.610321,476.256958 415.169250,468.392761 
z"/>
<path fill="#1A1B13" opacity="1.000000" stroke="none" 
	d="
M678.711731,429.784607 
	C689.473267,413.995758 706.054749,408.271454 722.406006,414.454376 
	C737.577576,420.191132 747.261719,436.854889 745.293945,453.838104 
	C743.245056,471.521454 730.501770,484.425995 712.856018,486.686676 
	C691.061523,489.478882 670.478943,468.224030 673.579346,445.664642 
	C674.309753,440.349731 676.824646,435.280029 678.711731,429.784607 
z"/>
<path fill="#162114" opacity="1.000000" stroke="none" 
	d="
M567.572510,630.844482 
	C567.775391,638.385803 567.813171,645.517029 567.892822,652.647827 
	C567.928772,655.867126 566.504272,657.716675 563.183960,657.710327 
	C559.870850,657.703918 556.523621,657.835022 553.251831,657.424316 
	C544.971741,656.385010 540.209351,651.042542 540.196594,643.177551 
	C540.183533,635.060120 545.055481,629.091858 553.346497,628.519348 
	C557.987488,628.198975 563.261536,626.133606 567.572510,630.844482 
z"/>
<path fill="#171E12" opacity="1.000000" stroke="none" 
	d="
M467.926392,644.174683 
	C469.546570,633.767639 477.537445,627.109680 486.565735,628.230591 
	C495.557739,629.346985 502.316406,637.504211 501.595459,646.370422 
	C500.852600,655.505798 493.195618,662.365967 484.103241,662.042358 
	C474.834076,661.712402 468.403687,654.786560 467.926392,644.174683 
z"/>
<path fill="#161E12" opacity="1.000000" stroke="none" 
	d="
M382.103546,629.814758 
	C390.523804,627.055847 397.147125,628.595947 401.944244,634.191650 
	C406.411926,639.403137 407.354858,646.758972 404.100250,652.888428 
	C400.730804,659.234131 395.244324,662.255676 388.128540,661.988708 
	C380.840790,661.715393 374.499329,656.318542 372.654114,649.185547 
	C370.725616,641.730591 374.094269,634.616333 382.103546,629.814758 
z"/>
<path fill="#152B18" opacity="1.000000" stroke="none" 
	d="
M211.908066,638.250610 
	C203.497238,638.454102 195.446411,638.454102 187.403336,638.454102 
	C187.482178,630.751465 192.910461,626.509766 201.324707,627.057800 
	C208.587341,627.530884 213.037354,631.999573 211.908066,638.250610 
z"/>
<path fill="#161F13" opacity="1.000000" stroke="none" 
	d="
M647.878174,650.036621 
	C650.462646,650.599243 654.193481,650.807434 654.409119,651.788513 
	C655.161621,655.211121 654.774475,658.904419 654.611450,662.485352 
	C654.588379,662.991394 653.390930,663.877014 652.763123,663.854614 
	C647.339600,663.661804 641.829468,663.770874 636.554016,662.730652 
	C634.755127,662.375854 632.543335,659.082336 632.384949,656.990356 
	C632.251709,655.230530 634.467407,652.238159 636.274475,651.611511 
	C639.751221,650.405884 643.674561,650.488281 647.878174,650.036621 
z"/>
</svg>