<?xml version="1.0" standalone="no"?>
<!DOCTYPE svg PUBLIC "-//W3C//DTD SVG 20010904//EN"
 "http://www.w3.org/TR/2001/REC-SVG-20010904/DTD/svg10.dtd">
<svg version="1.0" xmlns="http://www.w3.org/2000/svg"
 width="794.000000pt" height="714.000000pt" viewBox="0 0 794.000000 714.000000"
 preserveAspectRatio="xMidYMid meet">

<g transform="translate(0.000000,714.000000) scale(0.100000,-0.100000)"
fill="#000000" stroke="none">
<path d="M0 3570 l0 -3570 3970 0 3970 0 0 3570 0 3570 -3970 0 -3970 0 0
-3570z m4422 3423 c10 -9 18 -24 18 -34 0 -16 -908 -2367 -931 -2410 -19 -37
-98 -13 -87 27 13 46 921 2410 930 2422 15 17 48 15 70 -5z m-1052 -433 c32
-32 25 -65 -22 -104 -196 -162 -688 -542 -815 -632 -23 -16 -45 -35 -47 -42
-3 -7 27 -36 72 -69 222 -163 793 -609 820 -642 28 -34 1 -91 -43 -91 -15 0
-191 132 -486 365 -255 201 -479 380 -497 397 -30 28 -32 32 -19 52 8 11 207
173 443 359 613 484 556 445 594 407z m1690 -378 c379 -297 490 -389 490 -406
0 -16 -50 -60 -207 -181 -115 -88 -335 -260 -491 -383 -156 -122 -294 -225
-307 -228 -34 -9 -45 2 -45 45 0 32 6 43 38 68 89 71 656 516 750 587 65 50
102 85 100 94 -2 9 -194 166 -428 349 -234 183 -433 342 -442 354 -10 12 -18
37 -18 56 0 33 1 34 35 31 30 -2 120 -69 525 -386z m-3961 -2366 c368 -96 618
-371 662 -728 16 -128 6 -350 -20 -453 -28 -108 -89 -230 -161 -318 -112 -139
-246 -228 -427 -284 l-88 -27 -442 -4 -443 -3 0 914 c0 502 3 917 7 921 5 4
197 6 428 3 349 -3 431 -7 484 -21z m2519 -898 l2 -918 -185 0 -185 0 0 913
c0 503 3 917 7 921 4 3 86 5 182 4 l176 -3 3 -917z m3652 417 c200 -48 387
-200 475 -387 49 -104 65 -176 65 -293 0 -208 -90 -400 -247 -527 -125 -101
-243 -151 -394 -168 -428 -49 -809 274 -810 685 -1 201 66 363 206 501 181
178 449 250 705 189z m-2661 -10 c148 -36 261 -117 317 -226 52 -103 55 -130
61 -609 5 -391 4 -447 -10 -458 -39 -33 -350 -75 -562 -75 -235 -1 -384 32
-502 110 -196 129 -226 410 -62 575 93 93 223 137 434 145 80 3 169 1 208 -5
76 -12 109 -5 127 28 14 27 0 73 -40 129 -52 71 -121 93 -291 92 -110 -1 -180
-12 -322 -53 -59 -17 -109 -29 -111 -27 -10 9 72 312 86 320 30 16 171 51 266
64 117 17 311 12 401 -10z m1321 0 c99 -19 267 -71 275 -86 6 -9 -70 -224 -87
-246 -7 -9 -21 -7 -56 8 -180 77 -466 83 -523 11 -24 -32 -24 -53 2 -86 29
-37 53 -48 227 -100 282 -85 391 -152 460 -281 25 -46 27 -60 27 -160 0 -105
-2 -114 -33 -177 -55 -112 -160 -188 -309 -225 -93 -22 -336 -22 -458 0 -172
32 -345 85 -345 106 0 11 87 241 93 248 3 2 45 -9 95 -26 125 -42 237 -61 356
-61 163 0 246 36 246 108 0 57 -46 93 -170 131 -273 84 -335 106 -388 141 -80
52 -120 95 -156 170 -28 58 -31 74 -30 150 4 219 138 351 399 394 57 9 290 -3
375 -19z m-3680 -460 c5 -427 5 -430 29 -478 44 -91 130 -124 295 -113 55 3
113 9 128 12 l28 6 2 502 3 501 180 0 180 0 3 -626 c2 -494 -1 -629 -10 -637
-15 -11 -213 -45 -367 -63 -134 -15 -386 -7 -466 15 -153 42 -263 122 -314
229 -53 109 -58 182 -53 765 l2 322 178 -2 177 -3 5 -430z m2195 -1637 c3 -13
4 -205 3 -428 l-3 -405 -80 0 -80 0 -3 415 c-1 228 0 421 3 427 3 9 29 13 79
13 70 0 76 -2 81 -22z m1603 -32 c23 -23 19 -76 -7 -98 -26 -20 -57 -23 -95
-8 -45 17 -47 102 -3 120 29 13 87 5 105 -14z m-4646 -103 l3 -88 105 -5 105
-5 3 -72 3 -73 -83 0 c-137 0 -128 9 -128 -140 0 -106 3 -130 16 -141 10 -8
52 -16 103 -19 l86 -5 3 -72 c3 -71 2 -73 -24 -79 -37 -9 -213 2 -249 16 -16
6 -41 21 -54 33 -43 40 -51 76 -51 236 0 165 1 162 -65 171 l-40 5 -3 58 c-4
71 6 85 61 89 l42 3 3 75 c1 41 4 81 7 88 3 8 28 12 79 12 l75 0 3 -87z m720
-101 c86 -39 145 -125 169 -245 18 -88 23 -86 -224 -89 -161 -2 -211 -6 -215
-16 -2 -7 16 -32 40 -56 70 -71 142 -81 250 -34 26 11 51 17 57 14 17 -11 62
-99 57 -112 -15 -38 -183 -80 -282 -71 -197 19 -318 171 -292 369 16 123 109
227 232 259 48 13 161 2 208 -19z m691 1 c27 -8 51 -21 54 -28 2 -8 -8 -35
-23 -60 l-27 -47 -51 8 c-159 26 -234 -15 -251 -138 -14 -101 38 -188 121
-204 33 -6 94 -2 154 12 22 4 29 -1 53 -44 15 -28 27 -55 27 -60 0 -23 -104
-47 -200 -47 -84 0 -102 3 -152 28 -112 55 -168 151 -168 286 0 84 12 127 53
187 77 116 247 160 410 107z m520 7 c61 -18 114 -73 134 -139 21 -72 22 -449
1 -463 -16 -10 -119 -10 -135 0 -8 5 -13 68 -15 214 -3 200 -4 208 -25 230
-18 18 -37 23 -93 26 -113 7 -110 13 -110 -248 0 -246 6 -230 -84 -230 -91 0
-87 -15 -84 305 l3 280 25 12 c66 31 297 39 383 13z m692 -11 c207 -97 255
-363 94 -514 -68 -64 -126 -88 -224 -93 -64 -3 -91 0 -136 17 -124 47 -209
166 -209 292 0 149 79 260 223 311 71 25 183 20 252 -13z m962 -2 c71 -37 139
-109 164 -177 31 -81 23 -188 -18 -261 -131 -234 -482 -223 -600 19 -81 166
16 378 202 439 66 21 190 12 252 -20z m750 6 c106 -26 98 2 95 -340 -2 -164
-6 -309 -9 -323 -20 -88 -88 -151 -181 -171 -60 -12 -181 -7 -243 11 -35 10
-38 13 -54 81 -10 38 -15 72 -13 75 3 2 34 -2 69 -11 77 -18 178 -19 214 -3
35 16 59 62 46 87 -8 15 -27 20 -88 26 -246 22 -342 102 -343 286 0 42 7 95
15 120 54 157 251 222 492 162z m850 -9 c104 -50 123 -106 123 -369 0 -146 -3
-195 -13 -203 -23 -20 -159 -34 -278 -30 -104 4 -122 7 -174 33 -74 37 -97 69
-102 137 -7 79 26 134 102 173 54 27 67 30 169 31 61 1 114 2 119 3 18 3 5 55
-22 82 -28 27 -34 29 -113 29 -46 0 -110 -7 -142 -15 -33 -9 -61 -14 -63 -11
-2 2 4 34 13 71 19 75 23 79 127 94 93 14 193 4 254 -25z m-529 8 c9 -7 12
-74 10 -303 l-3 -294 -75 0 -75 0 -3 290 c-1 159 0 295 3 302 5 15 121 18 143
5z"/>
<path d="M545 3338 c-3 -90 -5 -352 -3 -583 l3 -420 172 -3 c203 -3 283 10
388 63 132 66 214 160 263 299 23 63 25 88 26 216 1 123 -3 156 -21 215 -43
136 -139 249 -264 313 -96 48 -177 62 -380 62 l-177 0 -7 -162z"/>
<path d="M6995 3017 c-114 -38 -207 -123 -246 -225 -31 -80 -31 -196 0 -275
32 -81 113 -166 193 -203 87 -39 196 -40 280 -2 76 35 148 104 183 175 24 49
30 73 33 153 3 80 0 104 -19 155 -30 80 -131 184 -204 209 -68 23 -170 29
-220 13z"/>
<path d="M4224 2526 c-58 -27 -91 -63 -100 -111 -11 -60 43 -127 120 -150 64
-19 346 -21 364 -3 8 8 12 53 12 134 0 98 -3 126 -16 138 -13 13 -43 16 -172
16 -144 0 -161 -2 -208 -24z"/>
<path d="M1913 860 c-35 -21 -53 -48 -53 -79 0 -20 5 -21 125 -21 137 0 149 5
127 56 -28 59 -135 84 -199 44z"/>
<path d="M3815 856 c-93 -42 -131 -154 -82 -241 33 -58 88 -87 159 -82 95 6
158 73 158 169 -1 117 -129 201 -235 154z"/>
<path d="M4762 849 c-59 -29 -85 -70 -90 -139 -7 -100 53 -170 153 -178 155
-13 241 165 136 282 -52 58 -126 71 -199 35z"/>
<path d="M5470 848 c-107 -54 -107 -202 0 -255 50 -26 167 -32 188 -11 8 8 12
53 12 138 0 85 -4 130 -12 138 -21 21 -138 15 -188 -10z"/>
<path d="M6343 630 c-40 -24 -45 -66 -12 -96 17 -16 37 -19 113 -19 l91 0 0
65 0 65 -80 3 c-66 2 -86 -1 -112 -18z"/>
</g>
</svg>
