<svg version="1.1" id="Layer_1" xmlns="http://www.w3.org/2000/svg" xmlns:xlink="http://www.w3.org/1999/xlink" x="0px" y="0px"
	 width="100%" viewBox="0 0 962 771" enable-background="new 0 0 962 771" xml:space="preserve">
<path fill="#171910" opacity="1.000000" stroke="none" 
	d="
M605.000000,772.000000 
	C403.333405,772.000000 202.166794,772.000000 1.000135,772.000000 
	C1.000090,515.000122 1.000090,258.000275 1.000045,1.000307 
	C321.666443,1.000205 642.332886,1.000205 962.999512,1.000102 
	C962.999634,257.999695 962.999634,514.999390 962.999817,771.999512 
	C843.833313,772.000000 724.666687,772.000000 605.000000,772.000000 
M654.389832,160.216629 
	C657.631409,156.777466 656.430725,154.152588 653.097595,151.549179 
	C622.676453,127.788094 592.263306,104.016144 561.967163,80.096207 
	C558.557983,77.404488 555.238586,76.015739 550.370850,77.294548 
	C545.855957,81.693474 546.382996,87.444382 552.118347,92.522728 
	C558.945801,98.568031 565.862366,104.525253 572.950745,110.260590 
	C589.445129,123.606392 606.083252,136.774277 622.625854,150.060715 
	C628.643860,154.894165 628.646301,157.990311 622.508850,162.895432 
	C616.033203,168.070786 609.330322,172.961411 602.840088,178.119064 
	C585.576538,191.837997 568.321533,205.568939 551.177612,219.436554 
	C545.724548,223.847458 545.561829,228.378647 550.355042,234.497025 
	C550.894592,235.025940 551.434204,235.554855 552.327087,236.698685 
	C556.353333,241.139771 560.517517,238.307037 563.928040,236.225906 
	C569.700745,232.703323 574.903625,228.259247 580.446411,224.344711 
	C588.840332,218.416611 597.628479,213.002502 605.694275,206.663971 
	C619.098755,196.130020 632.301331,185.305374 645.067627,174.013870 
	C648.916016,170.610107 651.037903,165.254364 654.389832,160.216629 
M453.858917,277.953064 
	C454.781067,277.262787 455.758453,276.634735 456.616730,275.872559 
	C464.387878,268.971649 468.028320,259.460510 471.606567,250.255478 
	C480.518738,227.328659 488.466034,204.028824 497.174316,181.020172 
	C509.941376,147.287552 522.819214,113.593140 536.089722,80.056503 
	C541.742798,65.770164 547.223572,51.605995 547.017639,35.937679 
	C546.944214,30.347216 544.404358,28.391304 538.882446,29.172380 
	C532.295654,30.104082 529.159546,34.858665 527.054260,40.112911 
	C513.766357,73.276085 500.583588,106.483109 487.643829,139.783569 
	C476.867218,167.517105 466.277649,195.327194 455.989441,223.244965 
	C451.005188,236.770157 446.625305,250.539062 442.577301,264.374786 
	C441.438934,268.265472 442.446075,272.783844 442.722107,277.710785 
	C446.219055,282.526154 450.411865,282.670135 453.858917,277.953064 
M118.905396,392.500000 
	C118.844261,437.977631 118.828667,483.455414 118.642426,528.932556 
	C118.626122,532.913208 119.453133,534.388611 123.801521,534.348206 
	C147.453812,534.128174 171.113312,534.517883 194.762482,534.167847 
	C228.424316,533.669678 259.302948,511.800690 271.845123,480.571014 
	C277.996521,465.254181 277.992432,449.324768 277.524872,433.325958 
	C276.202820,388.088867 240.899734,352.154755 195.638870,350.652344 
	C171.509552,349.851410 147.336639,350.408203 123.184837,350.193329 
	C119.442123,350.160034 118.816727,351.794769 118.852028,355.017548 
	C118.985214,367.177094 118.905434,379.338989 118.905396,392.500000 
M483.748047,472.256104 
	C472.960388,486.247009 472.570496,504.862305 482.962463,518.637329 
	C490.865875,529.113647 502.262054,533.652039 514.569702,536.042053 
	C541.746704,541.319702 568.600281,537.862976 595.358643,532.521179 
	C598.712585,531.851562 599.561157,530.076416 599.537720,526.951965 
	C599.331360,499.476715 599.762329,471.984192 598.919922,444.530090 
	C598.234619,422.196869 585.262573,407.402496 563.444092,401.958374 
	C541.920654,396.587891 520.802490,399.681793 499.791138,405.214447 
	C495.442688,406.359436 493.174774,408.368164 492.328979,413.068481 
	C490.783722,421.655762 488.397919,430.091766 486.179565,439.355743 
	C488.723236,438.599976 490.287506,438.141052 491.848328,437.670532 
	C508.520721,432.644867 525.284485,428.890503 542.961182,431.266327 
	C552.146301,432.500885 558.537354,436.943268 562.016235,445.273376 
	C563.046875,447.741302 563.657104,451.765747 562.355469,453.461853 
	C560.876404,455.389069 557.035950,456.279480 554.226440,456.270447 
	C544.261902,456.238373 534.253296,454.845459 524.346436,455.424408 
	C509.326080,456.302094 495.025848,459.977081 483.748047,472.256104 
M736.838379,463.210175 
	C737.813110,471.758545 737.531494,480.686768 739.981140,488.789215 
	C750.302002,522.926392 786.631226,544.283569 822.180176,537.471252 
	C851.094971,531.930298 871.491150,515.553894 879.614502,486.947479 
	C888.873779,454.340973 874.328674,422.968231 844.299561,406.917725 
	C798.696106,382.542755 742.579041,411.490082 736.838379,463.210175 
M290.916077,499.628937 
	C293.773224,517.717102 304.779510,528.708374 321.697845,534.022034 
	C327.989532,535.998169 334.650696,537.216614 341.229370,537.784119 
	C363.534454,539.708313 385.372070,535.580017 407.229919,531.966675 
	C410.604675,531.408752 410.774963,529.083862 410.773438,526.411316 
	C410.750977,487.090698 410.721436,447.769958 410.819885,408.449585 
	C410.828735,404.916870 409.628662,403.812683 406.184967,403.885132 
	C397.524933,404.067352 388.848297,404.196838 380.198700,403.845367 
	C375.455536,403.652649 374.391357,405.356293 374.419769,409.849945 
	C374.608307,439.672455 374.415466,469.497467 374.626556,499.319672 
	C374.658447,503.822906 373.232086,505.663635 368.889771,505.887726 
	C362.912354,506.196289 356.940308,507.206299 350.978790,507.111359 
	C334.397278,506.847351 326.648956,499.001526 326.085236,482.507843 
	C326.028351,480.843506 326.058533,479.176086 326.055450,477.510101 
	C326.013367,454.685120 325.889130,431.859711 326.011017,409.035614 
	C326.032074,405.087830 324.857513,403.756378 320.879730,403.868134 
	C312.056213,404.115936 303.217957,404.079956 294.391876,403.882568 
	C290.625824,403.798309 289.510040,405.228546 289.538208,408.868347 
	C289.674866,426.526855 289.452148,444.188660 289.650269,461.846008 
	C289.788391,474.155792 290.400635,486.460205 290.916077,499.628937 
M698.448792,430.685974 
	C702.022888,432.040070 705.545776,433.566437 709.199768,434.651520 
	C710.420776,435.014130 712.939209,434.646515 713.232056,433.937958 
	C716.440430,426.174774 719.325500,418.277924 722.817261,409.045349 
	C710.664185,406.077026 699.520020,402.686493 688.129395,400.734467 
	C672.239746,398.011414 656.276550,397.947479 640.818848,403.796173 
	C616.991882,412.811615 608.531128,442.362091 624.263611,461.797546 
	C631.977112,471.326569 642.742249,475.564575 654.066711,478.909088 
	C663.950134,481.828003 673.826233,484.814575 683.547668,488.221832 
	C688.583923,489.987030 691.744812,495.242065 691.103882,499.445557 
	C690.321838,504.575043 686.388672,506.197937 681.999573,507.412933 
	C668.880127,511.044739 655.866943,509.391235 642.974243,506.454865 
	C635.770935,504.814209 628.763733,502.312531 621.330078,500.098114 
	C618.284424,508.131439 615.239502,515.844177 612.565491,523.683411 
	C612.281982,524.514648 613.967102,526.911255 615.086670,527.191223 
	C628.771484,530.613098 642.386597,534.669983 656.290588,536.763245 
	C671.501221,539.053284 686.918518,538.418701 701.606262,532.711731 
	C716.406433,526.960999 725.101624,516.269104 726.946472,500.356720 
	C728.756714,484.742981 723.381897,471.886719 709.468201,464.633820 
	C697.921997,458.614990 685.166077,454.929871 672.990601,450.098907 
	C667.473267,447.909760 661.778748,445.920013 656.748047,442.875641 
	C654.786865,441.688873 653.182007,437.567261 653.696289,435.299805 
	C654.204163,433.060577 657.295166,430.570831 659.768921,429.754578 
	C672.404114,425.585297 685.077515,427.170135 698.448792,430.685974 
M462.985870,454.500000 
	C462.985809,421.669983 462.907654,388.839569 463.075043,356.010406 
	C463.098480,351.414337 461.761261,349.945129 457.116699,350.142578 
	C448.466522,350.510376 439.786224,350.389526 431.125427,350.181488 
	C427.456146,350.093353 426.153870,351.285187 426.159180,355.023010 
	C426.242126,413.350311 426.246429,471.677826 426.146881,530.005066 
	C426.140594,533.680908 427.525970,534.486755 430.853485,534.421936 
	C439.849152,534.246582 448.858643,534.135681 457.846069,534.459412 
	C462.203400,534.616394 463.089661,532.980957 463.064148,528.992065 
	C462.907776,504.495514 462.985840,479.997528 462.985870,454.500000 
M639.427795,635.845581 
	C627.591797,641.683472 622.177917,651.505798 623.527527,664.693054 
	C625.003113,679.111206 630.733459,686.229980 644.521301,689.641296 
	C649.960388,690.986877 655.720581,690.983643 661.268738,691.965881 
	C663.306885,692.326660 666.320435,693.378113 666.785767,694.801880 
	C667.326904,696.457825 666.109375,699.469177 664.655273,700.798462 
	C662.847168,702.451294 660.027588,703.799316 657.624146,703.833618 
	C652.516785,703.906555 647.383118,703.150085 642.286194,702.522888 
	C639.597412,702.192078 636.963135,701.418335 633.475098,700.665649 
	C634.495422,705.084961 635.534729,708.564392 636.049011,712.119751 
	C636.505066,715.272339 638.037720,716.944336 641.103394,717.263733 
	C647.200684,717.898865 653.314209,719.081360 659.401611,718.970703 
	C674.813110,718.690735 683.897278,710.242126 684.463684,694.968506 
	C685.117065,677.347839 684.889343,659.689941 684.740540,642.050781 
	C684.724854,640.186829 683.069031,637.224854 681.496399,636.660339 
	C667.886963,631.775085 654.059998,629.911499 639.427795,635.845581 
M355.542023,175.903625 
	C369.670532,187.044510 383.795837,198.189438 397.928558,209.324951 
	C408.529236,217.677475 419.138306,226.019272 429.746033,234.362808 
	C432.872528,236.821976 436.186218,237.697830 438.937897,234.145340 
	C441.548553,230.774872 440.502350,227.580643 437.336609,224.982407 
	C436.563782,224.348114 435.801147,223.700531 435.011169,223.088242 
	C407.758789,201.965103 380.499207,180.851227 353.262329,159.708160 
	C351.913239,158.660919 350.758240,157.363678 349.289886,155.971451 
	C350.857330,154.671783 351.843903,153.804123 352.880707,153.001343 
	C380.406342,131.688431 407.939667,110.385429 435.464905,89.072037 
	C440.732025,84.993622 441.779388,81.806587 439.046143,78.374947 
	C436.349121,74.988792 433.330475,75.371857 427.833740,79.709053 
	C419.594818,86.210060 411.325806,92.672974 403.077820,99.162514 
	C381.213348,116.365570 359.342194,133.560196 337.498993,150.790222 
	C331.821808,155.268402 331.762329,156.931290 337.343109,161.513962 
	C343.136017,166.270798 349.101074,170.817932 355.542023,175.903625 
M586.236877,696.594177 
	C587.393921,696.456421 588.552551,696.330688 589.707764,696.179016 
	C607.108276,693.893982 619.877930,678.686096 618.543945,661.841248 
	C617.190796,644.753845 602.198486,631.443909 584.599792,631.705933 
	C566.468018,631.976013 551.760803,645.629944 551.098389,662.808350 
	C550.375366,681.558228 564.396057,695.396362 586.236877,696.594177 
M460.653564,681.760681 
	C469.220673,693.094421 480.531494,697.986145 494.647064,696.090088 
	C518.446594,692.893250 531.045044,665.538269 517.526733,646.491028 
	C506.843475,631.438354 486.583466,627.241150 470.982208,636.791687 
	C456.902222,645.410828 449.858307,664.179504 460.653564,681.760681 
M294.004791,678.779968 
	C290.452026,676.338318 287.154602,673.718872 286.700867,668.373474 
	C288.833679,668.280029 290.603546,668.138733 292.373657,668.135376 
	C303.524017,668.114136 314.674652,668.092651 325.824829,668.143372 
	C328.872620,668.157227 331.665680,667.264038 331.222076,663.878418 
	C329.760620,652.723938 326.496674,642.311462 316.065216,636.014709 
	C303.611450,628.497314 285.375671,631.600159 275.993988,642.682800 
	C265.734253,654.802673 265.603485,673.372314 275.696350,684.952881 
	C285.379456,696.063354 303.256989,699.442810 318.971161,693.133484 
	C328.675964,689.237000 328.517029,689.325439 323.562531,680.421692 
	C321.417725,676.567261 319.412994,676.281372 315.681488,678.380493 
	C308.961243,682.161011 301.829773,682.815613 294.004791,678.779968 
M728.002625,648.278748 
	C733.622498,647.858398 739.280029,646.875793 744.846863,647.248169 
	C747.753967,647.442566 750.786743,649.676147 753.199219,651.670471 
	C754.379211,652.645874 754.845215,655.303162 754.489746,656.952576 
	C754.326355,657.710876 751.429565,658.130310 749.737366,658.264832 
	C742.973694,658.802612 736.016602,658.348999 729.465759,659.787048 
	C719.328186,662.012512 714.781921,668.555359 714.860596,678.381287 
	C714.925537,686.492615 719.949524,692.161804 729.806641,694.551270 
	C742.672363,697.669983 755.591431,696.766785 768.376038,693.982666 
	C769.872192,693.656860 771.960938,691.236023 771.990234,689.751038 
	C772.230042,677.606079 772.518860,665.426697 771.853455,653.309387 
	C771.229370,641.943909 764.015564,634.179810 752.607361,633.242798 
	C743.960266,632.532593 735.135986,633.815735 726.407532,634.446899 
	C725.169495,634.536377 723.316895,635.727844 722.967407,636.804810 
	C721.616089,640.968384 720.758423,645.292114 719.464905,650.587646 
	C722.820618,649.673645 724.996643,649.080994 728.002625,648.278748 
M393.090546,671.500000 
	C393.090515,675.330872 393.041168,679.162476 393.099426,682.992493 
	C393.303741,696.422302 390.816223,694.691895 405.589874,694.892334 
	C409.093719,694.939819 410.217682,693.449036 410.172485,690.073120 
	C410.034302,679.748230 410.122772,669.420349 410.123199,659.093628 
	C410.123688,647.366821 410.124146,647.366455 421.700409,647.479919 
	C429.919128,647.560425 432.431030,650.047729 432.460571,658.295166 
	C432.498749,668.954834 432.339508,679.618347 432.625031,690.270569 
	C432.666382,691.813293 434.841827,694.674622 435.804657,694.582092 
	C440.311340,694.149353 445.462677,697.175964 449.273438,692.550476 
	C449.537598,692.229858 449.453430,691.579956 449.446381,691.084412 
	C449.259491,677.948059 449.628906,664.770996 448.686829,651.688477 
	C447.926056,641.123657 441.814941,635.422058 431.425964,633.157654 
	C420.272308,630.726807 409.257690,632.335876 398.210266,634.133301 
	C394.263123,634.775574 392.962433,636.661194 393.032135,640.520264 
	C393.212524,650.510559 393.091400,660.506409 393.090546,671.500000 
M253.422623,694.954346 
	C264.335999,694.706787 264.335907,694.706787 263.782166,683.737244 
	C263.773773,683.570984 263.771393,683.403748 263.777008,683.237427 
	C263.877258,680.269592 262.379700,679.009155 259.484497,679.080383 
	C256.819794,679.146118 254.151978,679.106506 251.485748,679.085510 
	C244.142380,679.027771 241.861008,676.799683 241.799545,669.615784 
	C241.775314,666.782959 241.781723,663.949707 241.797714,661.116699 
	C241.868683,648.543762 240.486389,649.822632 252.948212,649.787170 
	C264.315094,649.754883 264.228058,649.783936 263.745361,638.569031 
	C263.608856,635.397339 262.440491,634.014526 259.248077,634.095886 
	C254.918045,634.206116 250.574997,633.956543 246.252640,634.169006 
	C242.700943,634.343567 241.483948,632.854980 241.667618,629.460571 
	C241.847458,626.137512 241.637253,622.795288 241.714569,619.464233 
	C241.787918,616.303345 239.848801,615.073181 237.261078,615.541870 
	C233.036743,616.307007 227.832687,612.796631 224.683975,618.191833 
	C224.241943,618.949341 224.548676,620.155762 224.544357,621.154480 
	C224.532074,623.987488 224.398010,626.829224 224.572678,629.651428 
	C224.789627,633.156921 223.275604,634.661255 219.860443,634.186157 
	C215.224091,633.541199 213.353043,635.484619 213.926529,640.096985 
	C214.130585,641.738098 214.067505,643.434387 213.936859,645.090576 
	C213.664795,648.539490 215.182892,650.165894 218.605988,649.759949 
	C223.617355,649.165710 224.869659,651.572327 224.710693,656.203552 
	C224.448090,663.853455 224.364288,671.549805 224.908752,679.176392 
	C225.517120,687.698120 230.142090,692.596741 238.534592,694.021606 
	C243.095901,694.795959 247.809387,694.674011 253.422623,694.954346 
M354.397095,673.674805 
	C353.995544,672.581055 353.500610,671.511719 353.206757,670.389771 
	C349.816559,657.444580 356.083282,647.137878 367.821960,646.739380 
	C371.250946,646.622925 374.804321,647.201599 378.138062,648.079346 
	C381.508453,648.966614 383.538696,648.184753 384.883484,645.022034 
	C385.463623,643.657715 386.354858,642.417480 387.169037,641.162476 
	C388.944489,638.425903 388.536743,636.152222 385.233429,635.517395 
	C378.434723,634.210815 371.509247,632.159851 364.729248,632.468018 
	C352.671875,633.016052 342.807037,638.574707 338.102173,650.351868 
	C333.455505,661.983337 333.923706,673.526489 341.465149,684.062073 
	C351.125946,697.558472 371.179199,698.772827 386.150909,692.632690 
	C386.944733,692.307129 387.832642,691.316895 387.996979,690.499512 
	C388.890137,686.057068 381.813904,679.555115 377.435120,680.622742 
	C368.718536,682.748230 360.496338,682.997192 354.397095,673.674805 
M528.888611,685.447449 
	C529.057861,696.383728 527.378845,694.720459 538.484497,694.886353 
	C538.650879,694.888855 538.817383,694.886841 538.983826,694.886719 
	C545.888306,694.881042 545.895325,694.881042 545.896301,688.193665 
	C545.899719,665.558777 545.897644,642.923828 545.897644,620.288940 
	C545.897644,609.109009 545.889282,609.382385 534.516174,609.035156 
	C529.601562,608.885071 528.773499,610.722961 528.806274,615.061646 
	C528.981384,638.194580 528.888550,661.329468 528.888611,685.447449 
M691.306458,675.498901 
	C691.306396,678.159729 691.272949,680.821106 691.312012,683.481384 
	C691.502686,696.459900 689.359741,694.563232 702.644958,694.954346 
	C707.159546,695.087219 708.322388,693.400391 708.263855,689.159546 
	C708.064209,674.693970 708.298645,660.222778 708.155212,645.755859 
	C708.020935,632.209351 710.491638,634.518738 696.121338,634.134033 
	C692.345459,634.032959 691.206055,635.460388 691.252075,639.077515 
	C691.402405,650.883057 691.307434,662.691772 691.306458,675.498901 
M707.423828,616.360168 
	C704.509583,612.288452 699.480042,610.580566 695.468872,613.038025 
	C693.646179,614.154724 691.811096,616.765503 691.722290,618.775513 
	C691.631958,620.820068 693.273560,624.273987 694.883362,624.774780 
	C697.938904,625.725220 701.948669,625.939819 704.714844,624.647156 
	C706.480713,623.821960 706.725159,619.740967 707.423828,616.360168 
z"/>
<path fill="#FDFDFC" opacity="1.000000" stroke="none" 
	d="
M118.905396,392.000000 
	C118.905434,379.338989 118.985214,367.177094 118.852028,355.017548 
	C118.816727,351.794769 119.442123,350.160034 123.184837,350.193329 
	C147.336639,350.408203 171.509552,349.851410 195.638870,350.652344 
	C240.899734,352.154755 276.202820,388.088867 277.524872,433.325958 
	C277.992432,449.324768 277.996521,465.254181 271.845123,480.571014 
	C259.302948,511.800690 228.424316,533.669678 194.762482,534.167847 
	C171.113312,534.517883 147.453812,534.128174 123.801521,534.348206 
	C119.453133,534.388611 118.626122,532.913208 118.642426,528.932556 
	C118.828667,483.455414 118.844261,437.977631 118.905396,392.000000 
M220.798080,395.659882 
	C215.394836,392.768341 210.246658,389.163940 204.539474,387.121765 
	C188.752487,381.472656 172.301025,384.713470 155.770187,383.717346 
	C155.633514,386.394501 155.459000,388.360687 155.444443,390.328064 
	C155.328552,405.985321 155.215454,421.642670 155.155106,437.300201 
	C155.079346,456.957520 155.068665,476.615082 154.990067,496.272400 
	C154.979904,498.813568 155.029114,500.821899 158.565277,500.771729 
	C168.889709,500.625122 179.264404,501.365997 189.534790,500.609924 
	C211.612808,498.984528 227.823776,488.244324 236.881439,467.673187 
	C241.099609,458.093231 240.706879,447.852417 240.663696,437.677673 
	C240.592224,420.840973 234.401047,406.903351 220.798080,395.659882 
z"/>
<path fill="#FBFBFB" opacity="1.000000" stroke="none" 
	d="
M483.989075,471.993591 
	C495.025848,459.977081 509.326080,456.302094 524.346436,455.424408 
	C534.253296,454.845459 544.261902,456.238373 554.226440,456.270447 
	C557.035950,456.279480 560.876404,455.389069 562.355469,453.461853 
	C563.657104,451.765747 563.046875,447.741302 562.016235,445.273376 
	C558.537354,436.943268 552.146301,432.500885 542.961182,431.266327 
	C525.284485,428.890503 508.520721,432.644867 491.848328,437.670532 
	C490.287506,438.141052 488.723236,438.599976 486.179565,439.355743 
	C488.397919,430.091766 490.783722,421.655762 492.328979,413.068481 
	C493.174774,408.368164 495.442688,406.359436 499.791138,405.214447 
	C520.802490,399.681793 541.920654,396.587891 563.444092,401.958374 
	C585.262573,407.402496 598.234619,422.196869 598.919922,444.530090 
	C599.762329,471.984192 599.331360,499.476715 599.537720,526.951965 
	C599.561157,530.076416 598.712585,531.851562 595.358643,532.521179 
	C568.600281,537.862976 541.746704,541.319702 514.569702,536.042053 
	C502.262054,533.652039 490.865875,529.113647 482.962463,518.637329 
	C472.570496,504.862305 472.960388,486.247009 483.989075,471.993591 
M513.666138,490.483856 
	C512.588623,497.819672 514.544617,502.450531 520.973145,505.766266 
	C524.149780,507.404755 527.818054,508.727356 531.338440,508.936340 
	C540.118774,509.457550 548.941711,509.302460 557.747803,509.328064 
	C561.112183,509.337860 563.041077,507.573242 563.089844,504.121429 
	C563.181396,497.641113 563.230469,491.159821 563.239563,484.678833 
	C563.244568,481.072540 561.343079,478.968964 557.763794,478.956299 
	C548.626648,478.923920 539.452393,478.622192 530.362915,479.328094 
	C523.397095,479.869080 517.168701,482.762177 513.666138,490.483856 
z"/>
<path fill="#FCFCFC" opacity="1.000000" stroke="none" 
	d="
M736.867554,462.765137 
	C742.579041,411.490082 798.696106,382.542755 844.299561,406.917725 
	C874.328674,422.968231 888.873779,454.340973 879.614502,486.947479 
	C871.491150,515.553894 851.094971,531.930298 822.180176,537.471252 
	C786.631226,544.283569 750.302002,522.926392 739.981140,488.789215 
	C737.531494,480.686768 737.813110,471.758545 736.867554,462.765137 
M773.309753,471.121216 
	C773.554993,472.766724 773.719238,474.429108 774.057983,476.055145 
	C777.775208,493.900909 793.321350,506.488129 810.818848,505.849823 
	C828.492371,505.205109 843.144348,491.205017 845.285828,472.916321 
	C847.438416,454.532288 836.287231,437.234406 819.180969,432.422333 
	C795.341492,425.716125 773.110291,444.028595 773.309753,471.121216 
z"/>
<path fill="#FCFCFC" opacity="1.000000" stroke="none" 
	d="
M290.858582,499.197998 
	C290.400635,486.460205 289.788391,474.155792 289.650269,461.846008 
	C289.452148,444.188660 289.674866,426.526855 289.538208,408.868347 
	C289.510040,405.228546 290.625824,403.798309 294.391876,403.882568 
	C303.217957,404.079956 312.056213,404.115936 320.879730,403.868134 
	C324.857513,403.756378 326.032074,405.087830 326.011017,409.035614 
	C325.889130,431.859711 326.013367,454.685120 326.055450,477.510101 
	C326.058533,479.176086 326.028351,480.843506 326.085236,482.507843 
	C326.648956,499.001526 334.397278,506.847351 350.978790,507.111359 
	C356.940308,507.206299 362.912354,506.196289 368.889771,505.887726 
	C373.232086,505.663635 374.658447,503.822906 374.626556,499.319672 
	C374.415466,469.497467 374.608307,439.672455 374.419769,409.849945 
	C374.391357,405.356293 375.455536,403.652649 380.198700,403.845367 
	C388.848297,404.196838 397.524933,404.067352 406.184967,403.885132 
	C409.628662,403.812683 410.828735,404.916870 410.819885,408.449585 
	C410.721436,447.769958 410.750977,487.090698 410.773438,526.411316 
	C410.774963,529.083862 410.604675,531.408752 407.229919,531.966675 
	C385.372070,535.580017 363.534454,539.708313 341.229370,537.784119 
	C334.650696,537.216614 327.989532,535.998169 321.697845,534.022034 
	C304.779510,528.708374 293.773224,517.717102 290.858582,499.197998 
z"/>
<path fill="#FBFBFB" opacity="1.000000" stroke="none" 
	d="
M698.046631,430.609802 
	C685.077515,427.170135 672.404114,425.585297 659.768921,429.754578 
	C657.295166,430.570831 654.204163,433.060577 653.696289,435.299805 
	C653.182007,437.567261 654.786865,441.688873 656.748047,442.875641 
	C661.778748,445.920013 667.473267,447.909760 672.990601,450.098907 
	C685.166077,454.929871 697.921997,458.614990 709.468201,464.633820 
	C723.381897,471.886719 728.756714,484.742981 726.946472,500.356720 
	C725.101624,516.269104 716.406433,526.960999 701.606262,532.711731 
	C686.918518,538.418701 671.501221,539.053284 656.290588,536.763245 
	C642.386597,534.669983 628.771484,530.613098 615.086670,527.191223 
	C613.967102,526.911255 612.281982,524.514648 612.565491,523.683411 
	C615.239502,515.844177 618.284424,508.131439 621.330078,500.098114 
	C628.763733,502.312531 635.770935,504.814209 642.974243,506.454865 
	C655.866943,509.391235 668.880127,511.044739 681.999573,507.412933 
	C686.388672,506.197937 690.321838,504.575043 691.103882,499.445557 
	C691.744812,495.242065 688.583923,489.987030 683.547668,488.221832 
	C673.826233,484.814575 663.950134,481.828003 654.066711,478.909088 
	C642.742249,475.564575 631.977112,471.326569 624.263611,461.797546 
	C608.531128,442.362091 616.991882,412.811615 640.818848,403.796173 
	C656.276550,397.947479 672.239746,398.011414 688.129395,400.734467 
	C699.520020,402.686493 710.664185,406.077026 722.817261,409.045349 
	C719.325500,418.277924 716.440430,426.174774 713.232056,433.937958 
	C712.939209,434.646515 710.420776,435.014130 709.199768,434.651520 
	C705.545776,433.566437 702.022888,432.040070 698.046631,430.609802 
z"/>
<path fill="#FBFBFB" opacity="1.000000" stroke="none" 
	d="
M462.985870,455.000000 
	C462.985840,479.997528 462.907776,504.495514 463.064148,528.992065 
	C463.089661,532.980957 462.203400,534.616394 457.846069,534.459412 
	C448.858643,534.135681 439.849152,534.246582 430.853485,534.421936 
	C427.525970,534.486755 426.140594,533.680908 426.146881,530.005066 
	C426.246429,471.677826 426.242126,413.350311 426.159180,355.023010 
	C426.153870,351.285187 427.456146,350.093353 431.125427,350.181488 
	C439.786224,350.389526 448.466522,350.510376 457.116699,350.142578 
	C461.761261,349.945129 463.098480,351.414337 463.075043,356.010406 
	C462.907654,388.839569 462.985809,421.669983 462.985870,455.000000 
z"/>
<path fill="#04F46B" opacity="1.000000" stroke="none" 
	d="
M639.762512,635.666931 
	C654.059998,629.911499 667.886963,631.775085 681.496399,636.660339 
	C683.069031,637.224854 684.724854,640.186829 684.740540,642.050781 
	C684.889343,659.689941 685.117065,677.347839 684.463684,694.968506 
	C683.897278,710.242126 674.813110,718.690735 659.401611,718.970703 
	C653.314209,719.081360 647.200684,717.898865 641.103394,717.263733 
	C638.037720,716.944336 636.505066,715.272339 636.049011,712.119751 
	C635.534729,708.564392 634.495422,705.084961 633.475098,700.665649 
	C636.963135,701.418335 639.597412,702.192078 642.286194,702.522888 
	C647.383118,703.150085 652.516785,703.906555 657.624146,703.833618 
	C660.027588,703.799316 662.847168,702.451294 664.655273,700.798462 
	C666.109375,699.469177 667.326904,696.457825 666.785767,694.801880 
	C666.320435,693.378113 663.306885,692.326660 661.268738,691.965881 
	C655.720581,690.983643 649.960388,690.986877 644.521301,689.641296 
	C630.733459,686.229980 625.003113,679.111206 623.527527,664.693054 
	C622.177917,651.505798 627.591797,641.683472 639.762512,635.666931 
M667.894653,660.525879 
	C667.894836,646.764465 664.541016,644.255981 651.001221,647.890564 
	C641.355347,650.479980 637.061829,661.179504 642.219910,669.778687 
	C645.664978,675.522156 651.230347,676.670044 657.300293,676.748352 
	C667.894531,676.885132 667.894470,676.891785 667.894653,666.505554 
	C667.894714,664.839722 667.894592,663.173889 667.894653,660.525879 
z"/>
<path fill="#202335" opacity="1.000000" stroke="none" 
	d="
M442.469086,277.014313 
	C442.446075,272.783844 441.438934,268.265472 442.577301,264.374786 
	C446.625305,250.539062 451.005188,236.770157 455.989441,223.244965 
	C466.277649,195.327194 476.867218,167.517105 487.643829,139.783569 
	C500.583588,106.483109 513.766357,73.276085 527.054260,40.112911 
	C529.159546,34.858665 532.295654,30.104082 538.882446,29.172380 
	C544.404358,28.391304 546.944214,30.347216 547.017639,35.937679 
	C547.223572,51.605995 541.742798,65.770164 536.089722,80.056503 
	C522.819214,113.593140 509.941376,147.287552 497.174316,181.020172 
	C488.466034,204.028824 480.518738,227.328659 471.606567,250.255478 
	C468.028320,259.460510 464.387878,268.971649 456.616730,275.872559 
	C455.758453,276.634735 454.781067,277.262787 453.508484,277.640320 
	C456.802490,267.857574 460.422455,258.378021 464.095245,248.918991 
	C490.769165,180.222260 517.453857,111.529724 544.134521,42.835629 
	C546.174988,37.582111 545.411987,34.700809 541.392761,33.282345 
	C536.728333,31.636145 535.136230,34.941631 533.830505,38.356239 
	C511.963348,95.541336 490.131287,152.739838 468.260986,209.923706 
	C459.702240,232.302002 451.068604,254.651627 442.469086,277.014313 
z"/>
<path fill="#04F16A" opacity="1.000000" stroke="none" 
	d="
M355.266418,175.680206 
	C349.101074,170.817932 343.136017,166.270798 337.343109,161.513962 
	C331.762329,156.931290 331.821808,155.268402 337.498993,150.790222 
	C359.342194,133.560196 381.213348,116.365570 403.077820,99.162514 
	C411.325806,92.672974 419.594818,86.210060 427.833740,79.709053 
	C433.330475,75.371857 436.349121,74.988792 439.046143,78.374947 
	C441.779388,81.806587 440.732025,84.993622 435.464905,89.072037 
	C407.939667,110.385429 380.406342,131.688431 352.880707,153.001343 
	C351.843903,153.804123 350.857330,154.671783 349.289886,155.971451 
	C350.758240,157.363678 351.913239,158.660919 353.262329,159.708160 
	C380.499207,180.851227 407.758789,201.965103 435.011169,223.088242 
	C435.801147,223.700531 436.563782,224.348114 437.336609,224.982407 
	C440.502350,227.580643 441.548553,230.774872 438.937897,234.145340 
	C436.186218,237.697830 432.872528,236.821976 429.746033,234.362808 
	C419.138306,226.019272 408.529236,217.677475 397.928558,209.324951 
	C383.795837,198.189438 369.670532,187.044510 355.266418,175.680206 
z"/>
<path fill="#04F06B" opacity="1.000000" stroke="none" 
	d="
M442.595581,277.362549 
	C451.068604,254.651627 459.702240,232.302002 468.260986,209.923706 
	C490.131287,152.739838 511.963348,95.541336 533.830505,38.356239 
	C535.136230,34.941631 536.728333,31.636145 541.392761,33.282345 
	C545.411987,34.700809 546.174988,37.582111 544.134521,42.835629 
	C517.453857,111.529724 490.769165,180.222260 464.095245,248.918991 
	C460.422455,258.378021 456.802490,267.857574 453.177246,277.699005 
	C450.411865,282.670135 446.219055,282.526154 442.595581,277.362549 
z"/>
<path fill="#04F16B" opacity="1.000000" stroke="none" 
	d="
M551.013245,77.005096 
	C555.238586,76.015739 558.557983,77.404488 561.967163,80.096207 
	C592.263306,104.016144 622.676453,127.788094 653.097595,151.549179 
	C656.430725,154.152588 657.631409,156.777466 653.830017,160.585358 
	C622.664612,184.767075 592.101379,208.635071 561.376526,232.293198 
	C558.798096,234.278580 555.133667,234.853531 551.973755,236.083771 
	C551.434204,235.554855 550.894592,235.025940 550.297302,233.867767 
	C549.887512,229.419876 551.407776,226.669846 554.469482,224.284882 
	C581.889587,202.925781 609.224304,181.457199 636.594666,160.034195 
	C641.191833,156.435913 641.243347,156.064484 636.637207,152.460892 
	C610.048462,131.659409 583.506470,110.797150 556.791260,90.159172 
	C552.217651,86.625938 549.836609,82.757805 551.013245,77.005096 
z"/>
<path fill="#04F46C" opacity="1.000000" stroke="none" 
	d="
M585.807190,696.617798 
	C564.396057,695.396362 550.375366,681.558228 551.098389,662.808350 
	C551.760803,645.629944 566.468018,631.976013 584.599792,631.705933 
	C602.198486,631.443909 617.190796,644.753845 618.543945,661.841248 
	C619.877930,678.686096 607.108276,693.893982 589.707764,696.179016 
	C588.552551,696.330688 587.393921,696.456421 585.807190,696.617798 
M583.735779,681.039246 
	C585.224304,680.926331 586.759644,681.009460 588.193420,680.667175 
	C595.147705,679.007080 599.660156,674.671021 601.197388,667.693970 
	C602.693970,660.901794 600.503113,655.113281 595.056763,650.844238 
	C589.596069,646.563965 583.517761,645.990723 577.241943,649.035278 
	C570.776917,652.171570 567.170654,659.057861 568.015076,666.380798 
	C568.882385,673.902283 573.831299,678.762268 583.735779,681.039246 
z"/>
<path fill="#03F46C" opacity="1.000000" stroke="none" 
	d="
M460.447693,681.455872 
	C449.858307,664.179504 456.902222,645.410828 470.982208,636.791687 
	C486.583466,627.241150 506.843475,631.438354 517.526733,646.491028 
	C531.045044,665.538269 518.446594,692.893250 494.647064,696.090088 
	C480.531494,697.986145 469.220673,693.094421 460.447693,681.455872 
M489.434296,647.174194 
	C487.477509,647.519531 485.426544,647.600525 483.581024,648.258118 
	C477.225616,650.522522 473.407501,655.191345 472.390747,661.769836 
	C471.325928,668.659119 474.041229,674.269775 479.753113,678.134888 
	C485.503113,682.025757 491.653412,682.101624 497.691315,678.683289 
	C503.784149,675.233948 506.994080,668.090637 505.757904,661.226379 
	C504.406738,653.723755 499.254608,649.059814 489.434296,647.174194 
z"/>
<path fill="#03F56C" opacity="1.000000" stroke="none" 
	d="
M294.347229,678.966064 
	C301.829773,682.815613 308.961243,682.161011 315.681488,678.380493 
	C319.412994,676.281372 321.417725,676.567261 323.562531,680.421692 
	C328.517029,689.325439 328.675964,689.237000 318.971161,693.133484 
	C303.256989,699.442810 285.379456,696.063354 275.696350,684.952881 
	C265.603485,673.372314 265.734253,654.802673 275.993988,642.682800 
	C285.375671,631.600159 303.611450,628.497314 316.065216,636.014709 
	C326.496674,642.311462 329.760620,652.723938 331.222076,663.878418 
	C331.665680,667.264038 328.872620,668.157227 325.824829,668.143372 
	C314.674652,668.092651 303.524017,668.114136 292.373657,668.135376 
	C290.603546,668.138733 288.833679,668.280029 286.700867,668.373474 
	C287.154602,673.718872 290.452026,676.338318 294.347229,678.966064 
M290.906860,657.801147 
	C297.047546,657.756592 303.188507,657.661133 309.328827,657.690369 
	C312.108246,657.703613 313.416321,656.788757 312.598907,653.813293 
	C311.279572,649.011047 305.679443,645.796326 298.927551,646.053711 
	C293.228455,646.270996 287.932220,649.916077 287.413330,654.456421 
	C287.298950,655.457642 289.098846,656.677551 290.906860,657.801147 
z"/>
<path fill="#03F56C" opacity="1.000000" stroke="none" 
	d="
M727.587646,648.383545 
	C724.996643,649.080994 722.820618,649.673645 719.464905,650.587646 
	C720.758423,645.292114 721.616089,640.968384 722.967407,636.804810 
	C723.316895,635.727844 725.169495,634.536377 726.407532,634.446899 
	C735.135986,633.815735 743.960266,632.532593 752.607361,633.242798 
	C764.015564,634.179810 771.229370,641.943909 771.853455,653.309387 
	C772.518860,665.426697 772.230042,677.606079 771.990234,689.751038 
	C771.960938,691.236023 769.872192,693.656860 768.376038,693.982666 
	C755.591431,696.766785 742.672363,697.669983 729.806641,694.551270 
	C719.949524,692.161804 714.925537,686.492615 714.860596,678.381287 
	C714.781921,668.555359 719.328186,662.012512 729.465759,659.787048 
	C736.016602,658.348999 742.973694,658.802612 749.737366,658.264832 
	C751.429565,658.130310 754.326355,657.710876 754.489746,656.952576 
	C754.845215,655.303162 754.379211,652.645874 753.199219,651.670471 
	C750.786743,649.676147 747.753967,647.442566 744.846863,647.248169 
	C739.280029,646.875793 733.622498,647.858398 727.587646,648.383545 
M755.168030,680.136841 
	C755.173340,677.649658 755.429443,675.126404 755.079163,672.690369 
	C754.901978,671.458191 753.582214,669.365784 752.857910,669.398621 
	C746.998718,669.664551 740.965820,669.627930 735.376343,671.133423 
	C731.286987,672.235046 730.856628,677.070923 733.663696,680.067261 
	C737.268860,683.915833 750.767151,684.527588 755.168030,680.136841 
z"/>
<path fill="#04F36B" opacity="1.000000" stroke="none" 
	d="
M393.090576,671.000000 
	C393.091400,660.506409 393.212524,650.510559 393.032135,640.520264 
	C392.962433,636.661194 394.263123,634.775574 398.210266,634.133301 
	C409.257690,632.335876 420.272308,630.726807 431.425964,633.157654 
	C441.814941,635.422058 447.926056,641.123657 448.686829,651.688477 
	C449.628906,664.770996 449.259491,677.948059 449.446381,691.084412 
	C449.453430,691.579956 449.537598,692.229858 449.273438,692.550476 
	C445.462677,697.175964 440.311340,694.149353 435.804657,694.582092 
	C434.841827,694.674622 432.666382,691.813293 432.625031,690.270569 
	C432.339508,679.618347 432.498749,668.954834 432.460571,658.295166 
	C432.431030,650.047729 429.919128,647.560425 421.700409,647.479919 
	C410.124146,647.366455 410.123688,647.366821 410.123199,659.093628 
	C410.122772,669.420349 410.034302,679.748230 410.172485,690.073120 
	C410.217682,693.449036 409.093719,694.939819 405.589874,694.892334 
	C390.816223,694.691895 393.303741,696.422302 393.099426,682.992493 
	C393.041168,679.162476 393.090515,675.330872 393.090576,671.000000 
z"/>
<path fill="#04F36B" opacity="1.000000" stroke="none" 
	d="
M252.938416,694.955322 
	C247.809387,694.674011 243.095901,694.795959 238.534592,694.021606 
	C230.142090,692.596741 225.517120,687.698120 224.908752,679.176392 
	C224.364288,671.549805 224.448090,663.853455 224.710693,656.203552 
	C224.869659,651.572327 223.617355,649.165710 218.605988,649.759949 
	C215.182892,650.165894 213.664795,648.539490 213.936859,645.090576 
	C214.067505,643.434387 214.130585,641.738098 213.926529,640.096985 
	C213.353043,635.484619 215.224091,633.541199 219.860443,634.186157 
	C223.275604,634.661255 224.789627,633.156921 224.572678,629.651428 
	C224.398010,626.829224 224.532074,623.987488 224.544357,621.154480 
	C224.548676,620.155762 224.241943,618.949341 224.683975,618.191833 
	C227.832687,612.796631 233.036743,616.307007 237.261078,615.541870 
	C239.848801,615.073181 241.787918,616.303345 241.714569,619.464233 
	C241.637253,622.795288 241.847458,626.137512 241.667618,629.460571 
	C241.483948,632.854980 242.700943,634.343567 246.252640,634.169006 
	C250.574997,633.956543 254.918045,634.206116 259.248077,634.095886 
	C262.440491,634.014526 263.608856,635.397339 263.745361,638.569031 
	C264.228058,649.783936 264.315094,649.754883 252.948212,649.787170 
	C240.486389,649.822632 241.868683,648.543762 241.797714,661.116699 
	C241.781723,663.949707 241.775314,666.782959 241.799545,669.615784 
	C241.861008,676.799683 244.142380,679.027771 251.485748,679.085510 
	C254.151978,679.106506 256.819794,679.146118 259.484497,679.080383 
	C262.379700,679.009155 263.877258,680.269592 263.777008,683.237427 
	C263.771393,683.403748 263.773773,683.570984 263.782166,683.737244 
	C264.335907,694.706787 264.335999,694.706787 252.938416,694.955322 
z"/>
<path fill="#04F36B" opacity="1.000000" stroke="none" 
	d="
M354.555725,674.032654 
	C360.496338,682.997192 368.718536,682.748230 377.435120,680.622742 
	C381.813904,679.555115 388.890137,686.057068 387.996979,690.499512 
	C387.832642,691.316895 386.944733,692.307129 386.150909,692.632690 
	C371.179199,698.772827 351.125946,697.558472 341.465149,684.062073 
	C333.923706,673.526489 333.455505,661.983337 338.102173,650.351868 
	C342.807037,638.574707 352.671875,633.016052 364.729248,632.468018 
	C371.509247,632.159851 378.434723,634.210815 385.233429,635.517395 
	C388.536743,636.152222 388.944489,638.425903 387.169037,641.162476 
	C386.354858,642.417480 385.463623,643.657715 384.883484,645.022034 
	C383.538696,648.184753 381.508453,648.966614 378.138062,648.079346 
	C374.804321,647.201599 371.250946,646.622925 367.821960,646.739380 
	C356.083282,647.137878 349.816559,657.444580 353.206757,670.389771 
	C353.500610,671.511719 353.995544,672.581055 354.555725,674.032654 
z"/>
<path fill="#04F26B" opacity="1.000000" stroke="none" 
	d="
M528.888550,684.955566 
	C528.888550,661.329468 528.981384,638.194580 528.806274,615.061646 
	C528.773499,610.722961 529.601562,608.885071 534.516174,609.035156 
	C545.889282,609.382385 545.897644,609.109009 545.897644,620.288940 
	C545.897644,642.923828 545.899719,665.558777 545.896301,688.193665 
	C545.895325,694.881042 545.888306,694.881042 538.983826,694.886719 
	C538.817383,694.886841 538.650879,694.888855 538.484497,694.886353 
	C527.378845,694.720459 529.057861,696.383728 528.888550,684.955566 
z"/>
<path fill="#202335" opacity="1.000000" stroke="none" 
	d="
M550.692017,77.149826 
	C549.836609,82.757805 552.217651,86.625938 556.791260,90.159172 
	C583.506470,110.797150 610.048462,131.659409 636.637207,152.460892 
	C641.243347,156.064484 641.191833,156.435913 636.594666,160.034195 
	C609.224304,181.457199 581.889587,202.925781 554.469482,224.284882 
	C551.407776,226.669846 549.887512,229.419876 550.140381,233.629974 
	C545.561829,228.378647 545.724548,223.847458 551.177612,219.436554 
	C568.321533,205.568939 585.576538,191.837997 602.840088,178.119064 
	C609.330322,172.961411 616.033203,168.070786 622.508850,162.895432 
	C628.646301,157.990311 628.643860,154.894165 622.625854,150.060715 
	C606.083252,136.774277 589.445129,123.606392 572.950745,110.260590 
	C565.862366,104.525253 558.945801,98.568031 552.118347,92.522728 
	C546.382996,87.444382 545.855957,81.693474 550.692017,77.149826 
z"/>
<path fill="#04F16A" opacity="1.000000" stroke="none" 
	d="
M691.306641,674.999084 
	C691.307434,662.691772 691.402405,650.883057 691.252075,639.077515 
	C691.206055,635.460388 692.345459,634.032959 696.121338,634.134033 
	C710.491638,634.518738 708.020935,632.209351 708.155212,645.755859 
	C708.298645,660.222778 708.064209,674.693970 708.263855,689.159546 
	C708.322388,693.400391 707.159546,695.087219 702.644958,694.954346 
	C689.359741,694.563232 691.502686,696.459900 691.312012,683.481384 
	C691.272949,680.821106 691.306396,678.159729 691.306641,674.999084 
z"/>
<path fill="#202335" opacity="1.000000" stroke="none" 
	d="
M552.150391,236.391235 
	C555.133667,234.853531 558.798096,234.278580 561.376526,232.293198 
	C592.101379,208.635071 622.664612,184.767075 653.610474,160.873444 
	C651.037903,165.254364 648.916016,170.610107 645.067627,174.013870 
	C632.301331,185.305374 619.098755,196.130020 605.694275,206.663971 
	C597.628479,213.002502 588.840332,218.416611 580.446411,224.344711 
	C574.903625,228.259247 569.700745,232.703323 563.928040,236.225906 
	C560.517517,238.307037 556.353333,241.139771 552.150391,236.391235 
z"/>
<path fill="#04ED68" opacity="1.000000" stroke="none" 
	d="
M707.537781,616.739990 
	C706.725159,619.740967 706.480713,623.821960 704.714844,624.647156 
	C701.948669,625.939819 697.938904,625.725220 694.883362,624.774780 
	C693.273560,624.273987 691.631958,620.820068 691.722290,618.775513 
	C691.811096,616.765503 693.646179,614.154724 695.468872,613.038025 
	C699.480042,610.580566 704.509583,612.288452 707.537781,616.739990 
z"/>
<path fill="#1A1B13" opacity="1.000000" stroke="none" 
	d="
M221.053070,395.910034 
	C234.401047,406.903351 240.592224,420.840973 240.663696,437.677673 
	C240.706879,447.852417 241.099609,458.093231 236.881439,467.673187 
	C227.823776,488.244324 211.612808,498.984528 189.534790,500.609924 
	C179.264404,501.365997 168.889709,500.625122 158.565277,500.771729 
	C155.029114,500.821899 154.979904,498.813568 154.990067,496.272400 
	C155.068665,476.615082 155.079346,456.957520 155.155106,437.300201 
	C155.215454,421.642670 155.328552,405.985321 155.444443,390.328064 
	C155.459000,388.360687 155.633514,386.394501 155.770187,383.717346 
	C172.301025,384.713470 188.752487,381.472656 204.539474,387.121765 
	C210.246658,389.163940 215.394836,392.768341 221.053070,395.910034 
z"/>
<path fill="#1B1C14" opacity="1.000000" stroke="none" 
	d="
M513.794800,490.118134 
	C517.168701,482.762177 523.397095,479.869080 530.362915,479.328094 
	C539.452393,478.622192 548.626648,478.923920 557.763794,478.956299 
	C561.343079,478.968964 563.244568,481.072540 563.239563,484.678833 
	C563.230469,491.159821 563.181396,497.641113 563.089844,504.121429 
	C563.041077,507.573242 561.112183,509.337860 557.747803,509.328064 
	C548.941711,509.302460 540.118774,509.457550 531.338440,508.936340 
	C527.818054,508.727356 524.149780,507.404755 520.973145,505.766266 
	C514.544617,502.450531 512.588623,497.819672 513.794800,490.118134 
z"/>
<path fill="#1A1B13" opacity="1.000000" stroke="none" 
	d="
M773.287964,470.682434 
	C773.110291,444.028595 795.341492,425.716125 819.180969,432.422333 
	C836.287231,437.234406 847.438416,454.532288 845.285828,472.916321 
	C843.144348,491.205017 828.492371,505.205109 810.818848,505.849823 
	C793.321350,506.488129 777.775208,493.900909 774.057983,476.055145 
	C773.719238,474.429108 773.554993,472.766724 773.287964,470.682434 
z"/>
<path fill="#162114" opacity="1.000000" stroke="none" 
	d="
M667.894653,661.016968 
	C667.894592,663.173889 667.894714,664.839722 667.894653,666.505554 
	C667.894470,676.891785 667.894531,676.885132 657.300293,676.748352 
	C651.230347,676.670044 645.664978,675.522156 642.219910,669.778687 
	C637.061829,661.179504 641.355347,650.479980 651.001221,647.890564 
	C664.541016,644.255981 667.894836,646.764465 667.894653,661.016968 
z"/>
<path fill="#171E12" opacity="1.000000" stroke="none" 
	d="
M583.316589,681.017456 
	C573.831299,678.762268 568.882385,673.902283 568.015076,666.380798 
	C567.170654,659.057861 570.776917,652.171570 577.241943,649.035278 
	C583.517761,645.990723 589.596069,646.563965 595.056763,650.844238 
	C600.503113,655.113281 602.693970,660.901794 601.197388,667.693970 
	C599.660156,674.671021 595.147705,679.007080 588.193420,680.667175 
	C586.759644,681.009460 585.224304,680.926331 583.316589,681.017456 
z"/>
<path fill="#161E12" opacity="1.000000" stroke="none" 
	d="
M489.842529,647.181458 
	C499.254608,649.059814 504.406738,653.723755 505.757904,661.226379 
	C506.994080,668.090637 503.784149,675.233948 497.691315,678.683289 
	C491.653412,682.101624 485.503113,682.025757 479.753113,678.134888 
	C474.041229,674.269775 471.325928,668.659119 472.390747,661.769836 
	C473.407501,655.191345 477.225616,650.522522 483.581024,648.258118 
	C485.426544,647.600525 487.477509,647.519531 489.842529,647.181458 
z"/>
<path fill="#152B18" opacity="1.000000" stroke="none" 
	d="
M290.462067,657.798950 
	C289.098846,656.677551 287.298950,655.457642 287.413330,654.456421 
	C287.932220,649.916077 293.228455,646.270996 298.927551,646.053711 
	C305.679443,645.796326 311.279572,649.011047 312.598907,653.813293 
	C313.416321,656.788757 312.108246,657.703613 309.328827,657.690369 
	C303.188507,657.661133 297.047546,657.756592 290.462067,657.798950 
z"/>
<path fill="#161F13" opacity="1.000000" stroke="none" 
	d="
M755.065674,680.584717 
	C750.767151,684.527588 737.268860,683.915833 733.663696,680.067261 
	C730.856628,677.070923 731.286987,672.235046 735.376343,671.133423 
	C740.965820,669.627930 746.998718,669.664551 752.857910,669.398621 
	C753.582214,669.365784 754.901978,671.458191 755.079163,672.690369 
	C755.429443,675.126404 755.173340,677.649658 755.065674,680.584717 
z"/>
</svg>